<?xml version="1.0" encoding="UTF-8"?>
<!DOCTYPE svg PUBLIC "-//W3C//DTD SVG 1.1//EN" "http://www.w3.org/Graphics/SVG/1.1/DTD/svg11.dtd">
<svg width="160mm" height="90mm" viewBox="0 0 16000 9000" version="1.1" baseProfile="tiny" xmlns="http://www.w3.org/2000/svg" stroke-width="28.222" stroke-linejoin="round" xml:space="preserve">
 <path fill="rgb(255,255,255)" stroke="none" d="M 8000,8999 L 0,8999 0,0 15999,0 15999,8999 8000,8999 Z"/>
 <path fill="none" stroke="rgb(179,179,179)" stroke-linejoin="round" d="M 7638,8172 L 1312,8172 1312,380 13963,380 13963,8172 7638,8172 Z"/>
 <path fill="none" stroke="rgb(179,179,179)" stroke-linejoin="round" d="M 13963,8171 L 1312,8171"/>
 <path fill="none" stroke="rgb(179,179,179)" stroke-linejoin="round" d="M 13963,7196 L 1312,7196"/>
 <path fill="none" stroke="rgb(179,179,179)" stroke-linejoin="round" d="M 13963,6222 L 1312,6222"/>
 <path fill="none" stroke="rgb(179,179,179)" stroke-linejoin="round" d="M 13963,5248 L 1312,5248"/>
 <path fill="none" stroke="rgb(179,179,179)" stroke-linejoin="round" d="M 13963,4275 L 1312,4275"/>
 <path fill="none" stroke="rgb(179,179,179)" stroke-linejoin="round" d="M 13963,3301 L 1312,3301"/>
 <path fill="none" stroke="rgb(179,179,179)" stroke-linejoin="round" d="M 13963,2327 L 1312,2327"/>
 <path fill="none" stroke="rgb(179,179,179)" stroke-linejoin="round" d="M 13963,1353 L 1312,1353"/>
 <path fill="none" stroke="rgb(179,179,179)" stroke-linejoin="round" d="M 13963,379 L 1312,379"/>
 <path fill="none" stroke="rgb(179,179,179)" stroke-linejoin="round" d="M 1312,8321 L 1312,8171"/>
 <path fill="none" stroke="rgb(179,179,179)" stroke-linejoin="round" d="M 1312,8321 L 1312,8171"/>
 <path fill="none" stroke="rgb(179,179,179)" stroke-linejoin="round" d="M 3842,8321 L 3842,8171"/>
 <path fill="none" stroke="rgb(179,179,179)" stroke-linejoin="round" d="M 3842,8321 L 3842,8171"/>
 <path fill="none" stroke="rgb(179,179,179)" stroke-linejoin="round" d="M 6372,8321 L 6372,8171"/>
 <path fill="none" stroke="rgb(179,179,179)" stroke-linejoin="round" d="M 6372,8321 L 6372,8171"/>
 <path fill="none" stroke="rgb(179,179,179)" stroke-linejoin="round" d="M 8902,8321 L 8902,8171"/>
 <path fill="none" stroke="rgb(179,179,179)" stroke-linejoin="round" d="M 8902,8321 L 8902,8171"/>
 <path fill="none" stroke="rgb(179,179,179)" stroke-linejoin="round" d="M 11432,8321 L 11432,8171"/>
 <path fill="none" stroke="rgb(179,179,179)" stroke-linejoin="round" d="M 11432,8321 L 11432,8171"/>
 <path fill="none" stroke="rgb(179,179,179)" stroke-linejoin="round" d="M 13963,8321 L 13963,8171"/>
 <path fill="none" stroke="rgb(179,179,179)" stroke-linejoin="round" d="M 13963,8321 L 13963,8171"/>
 <path fill="none" stroke="rgb(179,179,179)" stroke-linejoin="round" d="M 1312,8171 L 13963,8171"/>
 <path fill="none" stroke="rgb(179,179,179)" stroke-linejoin="round" d="M 1162,8171 L 1312,8171"/>
 <path fill="none" stroke="rgb(179,179,179)" stroke-linejoin="round" d="M 1162,8171 L 1312,8171"/>
 <path fill="none" stroke="rgb(179,179,179)" stroke-linejoin="round" d="M 1162,7196 L 1312,7196"/>
 <path fill="none" stroke="rgb(179,179,179)" stroke-linejoin="round" d="M 1162,7196 L 1312,7196"/>
 <path fill="none" stroke="rgb(179,179,179)" stroke-linejoin="round" d="M 1162,6222 L 1312,6222"/>
 <path fill="none" stroke="rgb(179,179,179)" stroke-linejoin="round" d="M 1162,6222 L 1312,6222"/>
 <path fill="none" stroke="rgb(179,179,179)" stroke-linejoin="round" d="M 1162,5248 L 1312,5248"/>
 <path fill="none" stroke="rgb(179,179,179)" stroke-linejoin="round" d="M 1162,5248 L 1312,5248"/>
 <path fill="none" stroke="rgb(179,179,179)" stroke-linejoin="round" d="M 1162,4275 L 1312,4275"/>
 <path fill="none" stroke="rgb(179,179,179)" stroke-linejoin="round" d="M 1162,4275 L 1312,4275"/>
 <path fill="none" stroke="rgb(179,179,179)" stroke-linejoin="round" d="M 1162,3301 L 1312,3301"/>
 <path fill="none" stroke="rgb(179,179,179)" stroke-linejoin="round" d="M 1162,3301 L 1312,3301"/>
 <path fill="none" stroke="rgb(179,179,179)" stroke-linejoin="round" d="M 1162,2327 L 1312,2327"/>
 <path fill="none" stroke="rgb(179,179,179)" stroke-linejoin="round" d="M 1162,2327 L 1312,2327"/>
 <path fill="none" stroke="rgb(179,179,179)" stroke-linejoin="round" d="M 1162,1353 L 1312,1353"/>
 <path fill="none" stroke="rgb(179,179,179)" stroke-linejoin="round" d="M 1162,1353 L 1312,1353"/>
 <path fill="none" stroke="rgb(179,179,179)" stroke-linejoin="round" d="M 1162,379 L 1312,379"/>
 <path fill="none" stroke="rgb(179,179,179)" stroke-linejoin="round" d="M 1162,379 L 1312,379"/>
 <path fill="none" stroke="rgb(179,179,179)" stroke-linejoin="round" d="M 1312,8171 L 1312,379"/>
 <path fill="none" stroke="rgb(174,207,0)" stroke-width="80" stroke-linejoin="round" d="M 1312,7691 L 1337,7722 1362,7752 1387,7782 1413,7812 1438,7841 1463,7870 1489,7899 1514,7926 1539,7953 1565,7979 1590,8004 1615,8028 1640,8051 1666,8073 1691,8093 1716,8112 1742,8129 1767,8145 1792,8158 1818,8171"/>
 <path fill="none" stroke="rgb(174,207,0)" stroke-width="80" stroke-linejoin="round" d="M 2324,8171 L 2349,8168 2374,8166 2400,8165 2425,8164 2450,8163 2475,8163 2501,8163 2526,8163 2551,8163 2577,8164 2602,8165 2627,8166 2653,8167 2678,8168 2703,8168 2729,8169 2754,8170 2779,8170 2803,8171"/>
 <path fill="none" stroke="rgb(174,207,0)" stroke-width="80" stroke-linejoin="round" d="M 2830,8171 L 2855,8170 2880,8170 2906,8169 2931,8168 2956,8167 2982,8166 3007,8165 3032,8164 3057,8163 3083,8162 3108,8161 3133,8161 3159,8160 3184,8160 3209,8161 3235,8162 3260,8163 3285,8165 3311,8167 3336,8171"/>
 <path fill="none" stroke="rgb(174,207,0)" stroke-width="80" stroke-linejoin="round" d="M 3842,8171 L 3867,8156 3893,8140 3918,8123 3943,8105 3968,8087 3994,8069 4019,8052 4044,8037 4070,8024 4095,8013 4120,8006 4146,8002 4171,8003 4196,8008 4221,8019 4247,8035 4272,8058 4297,8088 4323,8125 4348,8171"/>
 <path fill="none" stroke="rgb(174,207,0)" stroke-width="80" stroke-linejoin="round" d="M 4854,8171 L 4879,7970 4905,7741 4930,7487 4955,7213 4981,6921 5006,6616 5031,6302 5056,5981 5082,5659 5107,5338 5132,5023 5158,4716 5183,4424 5208,4147 5234,3890 5259,3658 5284,3453 5310,3280 5335,3142 5360,3044 5385,2987 5411,2970 5436,2990 5461,3044 5487,3130 5512,3245 5537,3384 5563,3547 5588,3730 5613,3930 5638,4143 5664,4369 5689,4601 5714,4841 5740,5083 5765,5325 5790,5564 5816,5797 5841,6021 5866,6234 5892,6433 5917,6618 5942,6790 5967,6948 5993,7095 6018,7230 6043,7353 6069,7466 6094,7568 6119,7661 6145,7744 6170,7819 6195,7886 6220,7945 6246,7997 6271,8043 6296,8083 6322,8117 6347,8146 6372,8171"/>
 <path fill="none" stroke="rgb(174,207,0)" stroke-width="80" stroke-linejoin="round" d="M 6878,8171 L 6904,8165 6929,8160 6954,8156 6980,8153 7005,8151 7030,8150 7056,8149 7081,8149 7106,8149 7131,8150 7157,8151 7182,8153 7207,8155 7233,8157 7258,8159 7283,8161 7309,8164 7334,8166 7359,8168 7384,8171"/>
 <path fill="none" stroke="rgb(174,207,0)" stroke-width="80" stroke-linejoin="round" d="M 7891,8171 L 7916,8169 7941,8166 7966,8164 7992,8162 8016,8160 8041,8158 8067,8156 8092,8154 8117,8153 8143,8152 8168,8151 8193,8151 8218,8151 8244,8152 8269,8153 8294,8155 8320,8158 8345,8161 8370,8165 8396,8171"/>
 <path fill="none" stroke="rgb(174,207,0)" stroke-width="80" stroke-linejoin="round" d="M 8902,8171 L 8927,8148 8952,8123 8978,8095 9003,8065 9028,8034 9054,8003 9079,7971 9104,7939 9129,7908 9155,7879 9180,7851 9205,7827 9231,7805 9256,7787 9281,7774 9307,7765 9332,7761 9357,7764 9382,7773 9408,7789 9433,7812 9458,7842 9484,7877 9509,7916 9534,7958 9560,8002 9585,8047 9610,8091 9636,8134 9659,8171"/>
 <path fill="none" stroke="rgb(174,207,0)" stroke-width="80" stroke-linejoin="round" d="M 9914,8171 L 9939,8105 9964,8025 9990,7933 10015,7828 10040,7713 10066,7588 10091,7455 10116,7315 10142,7169 10167,7018 10192,6863 10218,6706 10243,6548 10268,6390 10293,6233 10319,6078 10344,5926 10369,5779 10395,5638 10420,5504 10445,5378 10471,5259 10496,5148 10521,5044 10546,4945 10572,4853 10597,4765 10622,4683 10648,4605 10673,4531 10698,4461 10724,4393 10749,4328 10774,4265 10800,4203 10825,4142 10850,4082 10875,4022 10901,3962 10926,3901 10951,3839 10977,3776 11002,3714 11027,3654 11053,3596 11078,3543 11103,3493 11128,3449 11154,3412 11179,3383 11204,3362 11230,3350 11255,3349 11280,3360 11306,3383 11331,3419 11356,3470 11381,3537 11407,3619 11432,3720 11457,3838 11483,3973 11508,4123 11533,4286 11559,4461 11584,4646 11609,4839 11635,5039 11660,5244 11685,5452 11710,5662 11736,5871 11761,6079 11786,6284 11812,6483 11837,6675 11862,6859 11888,7033 11913,7194 11938,7342 11963,7476 11989,7595 12014,7700 12039,7792 12065,7872 12090,7941 12115,8000 12141,8049 12166,8088 12191,8120 12217,8145 12242,8163 12257,8171"/>
 <path fill="none" stroke="rgb(174,207,0)" stroke-width="80" stroke-linejoin="round" d="M 12444,8171 L 12470,8166 12495,8162 12520,8159 12545,8157 12571,8155 12596,8154 12621,8153 12647,8152 12672,8152 12697,8153 12723,8153 12748,8155 12773,8156 12799,8158 12824,8159 12849,8161 12874,8164 12900,8166 12925,8168 12950,8171"/>
 <path fill="none" stroke="rgb(49,64,4)" stroke-width="80" stroke-linejoin="round" d="M 1312,3996 L 1337,4033 1362,4070 1387,4106 1413,4143 1438,4178 1463,4213 1489,4248 1514,4281 1539,4314 1565,4346 1590,4377 1615,4406 1640,4434 1666,4461 1691,4486 1716,4508 1742,4529 1767,4549 1792,4566 1818,4582 1843,4595 1868,4606 1893,4615 1919,4622 1944,4628 1969,4632 1995,4634 2020,4636 2045,4636 2071,4635 2096,4633 2121,4630 2147,4627 2172,4624 2197,4620 2222,4615 2248,4611 2273,4607 2298,4603 2324,4599 2349,4596 2374,4594 2400,4591 2425,4589 2450,4588 2475,4587 2501,4586 2526,4586 2551,4585 2577,4585 2602,4585 2627,4586 2653,4586 2678,4587 2703,4588 2729,4588 2754,4589 2779,4590 2804,4591 2830,4592 2855,4592 2880,4593 2906,4593 2931,4594 2956,4595 2982,4596 3007,4597 3032,4598 3057,4599 3083,4601 3108,4603 3133,4605 3159,4608 3184,4611 3209,4614 3235,4618 3260,4623 3285,4628 3311,4634 3336,4640 3361,4647 3386,4655 3412,4663 3437,4671 3462,4678 3488,4686 3513,4693 3538,4700 3564,4706 3589,4710 3614,4714 3639,4716 3665,4717 3690,4716 3715,4713 3741,4708 3766,4701 3791,4691 3817,4679 3842,4664 3867,4646 3893,4625 3918,4602 3943,4577 3968,4552 3994,4525 4019,4499 4044,4472 4070,4446 4095,4420 4120,4397 4146,4374 4171,4355 4196,4338 4221,4324 4247,4314 4272,4307 4297,4306 4323,4309 4348,4318 4373,4332 4399,4352 4424,4375 4449,4402 4475,4431 4500,4462 4525,4494 4550,4524 4576,4554 4601,4583 4626,4609 4652,4631 4677,4649 4702,4661 4728,4668 4753,4667 4778,4659 4803,4642 4829,4615 4854,4578 4879,4530 4905,4473 4930,4407 4955,4333 4981,4254 5006,4170 5031,4083 5056,3994 5082,3905 5107,3817 5132,3731 5158,3649 5183,3573 5208,3502 5234,3439 5259,3386 5284,3343 5310,3312 5335,3294 5360,3291 5385,3304 5411,3330 5436,3370 5461,3422 5487,3484 5512,3554 5537,3632 5563,3715 5588,3803 5613,3893 5638,3985 5664,4077 5689,4167 5714,4254 5740,4337 5765,4413 5790,4483 5816,4542 5841,4592 5866,4631 5892,4656 5917,4669 5942,4672 5967,4665 5993,4650 6018,4627 6043,4598 6069,4564 6094,4527 6119,4488 6145,4448 6170,4407 6195,4367 6220,4329 6246,4296 6271,4267 6296,4244 6322,4228 6347,4220 6372,4222 6398,4235 6423,4258 6448,4291 6474,4333 6499,4385 6524,4444 6549,4511 6575,4587 6600,4669 6625,4759 6651,4854 6676,4956 6701,5063 6727,5174 6752,5291 6777,5411 6802,5534 6828,5661 6853,5791 6878,5922 6904,6056 6929,6190 6954,6325 6980,6460 7005,6595 7030,6728 7056,6860 7081,6990 7106,7117 7131,7240 7157,7360 7182,7475 7207,7586 7233,7690 7258,7789 7283,7881 7309,7966 7334,8042 7359,8111 7384,8171"/>
 <path fill="none" stroke="rgb(49,64,4)" stroke-width="80" stroke-linejoin="round" d="M 7891,8171 L 7916,8157 7941,8145 7966,8136 7992,8129 8016,8123 8041,8120 8067,8118 8092,8117 8117,8118 8143,8120 8168,8123 8193,8127 8218,8131 8244,8136 8269,8142 8294,8148 8320,8154 8345,8159 8370,8165 8396,8171"/>
 <path fill="none" stroke="rgb(49,64,4)" stroke-width="80" stroke-linejoin="round" d="M 8902,8171 L 8927,8165 8952,8158 8978,8152 9003,8145 9028,8138 9054,8132 9079,8126 9104,8121 9129,8116 9155,8113 9180,8110 9205,8109 9231,8110 9256,8112 9281,8116 9307,8122 9332,8131 9357,8141 9382,8154 9408,8171"/>
 <path fill="none" stroke="rgb(49,64,4)" stroke-width="80" stroke-linejoin="round" d="M 9914,8171 L 9939,8101 9964,8020 9990,7929 10015,7827 10040,7715 10066,7592 10091,7459 10116,7316 10142,7164 10167,7001 10192,6829 10218,6648 10243,6458 10268,6258 10293,6049 10319,5832 10344,5606 10369,5372 10395,5129 10420,4878 10445,4619 10471,4356 10496,4087 10521,3817 10546,3546 10572,3278 10597,3014 10622,2757 10648,2507 10673,2268 10698,2041 10724,1829 10749,1633 10774,1455 10800,1298 10825,1163 10850,1053 10875,970 10901,915 10926,891 10951,899 10977,936 11002,1002 11027,1093 11053,1206 11078,1339 11103,1489 11128,1655 11154,1833 11179,2021 11204,2216 11230,2416 11255,2618 11280,2820 11306,3020 11331,3214 11356,3400 11381,3575 11407,3738 11432,3885 11457,4015 11483,4128 11508,4225 11533,4307 11559,4376 11584,4431 11609,4475 11635,4508 11660,4532 11685,4547 11710,4555 11736,4556 11761,4553 11786,4545 11812,4533 11837,4520 11862,4505 11888,4491 11913,4478 11938,4466 11963,4457 11989,4451 12014,4448 12039,4447 12065,4448 12090,4451 12115,4456 12141,4463 12166,4470 12191,4478 12217,4488 12242,4497 12267,4506 12292,4516 12318,4526 12343,4535 12368,4543 12394,4551 12419,4557 12444,4562 12470,4566 12495,4568 12520,4568 12545,4567 12571,4564 12596,4561 12621,4556 12647,4550 12672,4543 12697,4535 12723,4527 12748,4518 12773,4508 12799,4498 12824,4487 12849,4475 12874,4464 12900,4452 12925,4439 12950,4427"/>
 <path fill="none" stroke="rgb(131,202,255)" stroke-width="80" stroke-linejoin="round" d="M 1312,5264 L 1337,5249 1362,5234 1387,5219 1413,5204 1438,5190 1463,5177 1489,5164 1514,5151 1539,5140 1565,5130 1590,5120 1615,5112 1640,5105 1666,5100 1691,5096 1716,5094 1742,5093 1767,5094 1792,5097 1818,5102 1843,5109 1868,5118 1893,5129 1919,5141 1944,5155 1969,5169 1995,5185 2020,5201 2045,5218 2071,5235 2096,5252 2121,5270 2147,5286 2172,5303 2197,5318 2222,5333 2248,5347 2273,5359 2298,5370 2324,5379 2349,5386 2374,5391 2400,5395 2425,5398 2450,5399 2475,5399 2501,5398 2526,5397 2551,5395 2577,5392 2602,5390 2627,5387 2653,5384 2678,5382 2703,5380 2729,5379 2754,5379 2779,5380 2804,5381 2830,5385 2855,5389 2880,5395 2906,5401 2931,5408 2956,5416 2982,5423 3007,5429 3032,5435 3057,5440 3083,5444 3108,5445 3133,5445 3159,5442 3184,5437 3209,5429 3235,5417 3260,5401 3285,5382 3311,5358 3336,5330 3361,5297 3386,5259 3412,5218 3437,5173 3462,5126 3488,5076 3513,5024 3538,4972 3564,4918 3589,4865 3614,4812 3639,4760 3665,4710 3690,4662 3715,4616 3741,4573 3766,4534 3791,4500 3817,4471 3842,4446 3867,4428 3893,4414 3918,4406 3943,4402 3968,4402 3994,4406 4019,4412 4044,4422 4070,4434 4095,4448 4120,4463 4146,4479 4171,4495 4196,4511 4221,4527 4247,4542 4272,4556 4297,4568 4323,4578 4348,4586 4373,4590 4399,4592 4424,4591 4449,4588 4475,4584 4500,4578 4525,4570 4550,4563 4576,4554 4601,4546 4626,4538 4652,4531 4677,4524 4702,4519 4728,4515 4753,4514 4778,4514 4803,4517 4829,4524 4854,4533 4879,4546 4905,4562 4930,4581 4955,4602 4981,4625 5006,4650 5031,4675 5056,4700 5082,4726 5107,4751 5132,4775 5158,4798 5183,4819 5208,4837 5234,4853 5259,4865 5284,4874 5310,4879 5335,4879 5360,4874 5385,4864 5411,4848 5436,4829 5461,4805 5487,4779 5512,4750 5537,4719 5563,4687 5588,4654 5613,4620 5638,4587 5664,4556 5689,4526 5714,4499 5740,4474 5765,4452 5790,4434 5816,4421 5841,4413 5866,4411 5892,4416 5917,4426 5942,4443 5967,4467 5993,4496 6018,4531 6043,4573 6069,4622 6094,4676 6119,4737 6145,4804 6170,4877 6195,4956 6220,5041 6246,5133 6271,5230 6296,5333 6322,5442 6347,5558 6372,5679 6398,5806 6423,5937 6448,6073 6474,6213 6499,6354 6524,6498 6549,6641 6575,6785 6600,6928 6625,7068 6651,7206 6676,7339 6701,7469 6727,7592 6752,7710 6777,7820 6802,7922 6828,8015 6853,8098 6878,8171"/>
 <path fill="none" stroke="rgb(131,202,255)" stroke-width="80" stroke-linejoin="round" d="M 7384,8171 L 7410,8155 7435,8142 7460,8133 7486,8126 7511,8121 7536,8118 7562,8117 7587,8118 7612,8120 7638,8124 7663,8128 7688,8133 7713,8138 7739,8144 7764,8150 7789,8155 7815,8160 7840,8165 7865,8168 7891,8171"/>
 <path fill="none" stroke="rgb(131,202,255)" stroke-width="80" stroke-linejoin="round" d="M 7960,8171 L 7966,8170 7992,8168 8016,8166 8041,8162 8067,8159 8092,8156 8117,8152 8143,8149 8168,8146 8193,8144 8218,8143 8244,8142 8269,8143 8294,8145 8320,8149 8345,8154 8370,8161 8396,8171"/>
 <path fill="none" stroke="rgb(131,202,255)" stroke-width="80" stroke-linejoin="round" d="M 8902,8171 L 8927,8124 8952,8071 8978,8012 9003,7948 9028,7881 9054,7811 9079,7739 9104,7667 9129,7594 9155,7523 9180,7454 9205,7388 9231,7327 9256,7270 9281,7219 9307,7176 9332,7140 9357,7114 9382,7097 9408,7091 9433,7097 9458,7114 9484,7140 9509,7176 9534,7219 9560,7270 9585,7327 9610,7388 9636,7454 9661,7523 9686,7594 9711,7666 9737,7739 9762,7811 9787,7881 9813,7948 9838,8012 9863,8070 9889,8124 9914,8171"/>
 <path fill="none" stroke="rgb(131,202,255)" stroke-width="80" stroke-linejoin="round" d="M 10420,8171 L 10445,8161 10471,8154 10496,8148 10521,8144 10546,8142 10572,8141 10597,8141 10622,8143 10648,8145 10673,8147 10698,8150 10724,8154 10749,8157 10774,8161 10800,8164 10825,8167 10850,8169 10875,8171"/>
 <path fill="none" stroke="rgb(131,202,255)" stroke-width="80" stroke-linejoin="round" d="M 10926,8171 L 10951,8169 10977,8166 11002,8162 11027,8158 11053,8153 11078,8148 11103,8143 11128,8138 11154,8134 11179,8130 11204,8127 11230,8125 11255,8124 11280,8124 11306,8127 11331,8131 11356,8137 11381,8146 11407,8157 11432,8171"/>
 <path fill="none" stroke="rgb(131,202,255)" stroke-width="80" stroke-linejoin="round" d="M 11938,8171 L 11963,8106 11989,8032 12014,7949 12039,7858 12065,7760 12090,7655 12115,7545 12141,7430 12166,7311 12191,7189 12217,7064 12242,6937 12267,6810 12292,6683 12318,6557 12343,6432 12368,6309 12394,6190 12419,6074 12444,5963 12470,5858 12495,5757 12520,5662 12545,5572 12571,5485 12596,5403 12621,5325 12647,5251 12672,5179 12697,5111 12723,5046 12748,4983 12773,4922 12799,4863 12824,4806 12849,4750 12874,4695 12900,4641 12925,4588 12950,4535"/>
 <path fill="none" stroke="rgb(255,211,32)" stroke-width="80" stroke-linejoin="round" d="M 1312,5207 L 1337,5395 1362,5582 1387,5768 1413,5952 1438,6134 1463,6313 1489,6488 1514,6659 1539,6826 1565,6987 1590,7142 1615,7290 1640,7431 1666,7565 1691,7690 1716,7807 1742,7913 1767,8010 1792,8096 1818,8171"/>
 <path fill="none" stroke="rgb(255,211,32)" stroke-width="80" stroke-linejoin="round" d="M 2324,8171 L 2349,8154 2374,8140 2400,8129 2425,8120 2450,8114 2475,8110 2501,8108 2526,8108 2551,8109 2577,8112 2602,8116 2627,8121 2653,8127 2678,8133 2703,8139 2729,8146 2754,8153 2779,8159 2804,8165 2830,8171"/>
 <path fill="none" stroke="rgb(255,211,32)" stroke-width="80" stroke-linejoin="round" d="M 3336,8171 L 3361,8169 3386,8168 3412,8167 3437,8167 3462,8166 3488,8166 3513,8166 3538,8166 3564,8166 3589,8166 3614,8167 3639,8167 3665,8167 3690,8168 3715,8168 3741,8169 3766,8169 3791,8170 3817,8170 3842,8171"/>
 <path fill="none" stroke="rgb(255,211,32)" stroke-width="80" stroke-linejoin="round" d="M 4348,8171 L 4373,8170 4399,8170 4424,8170 4449,8170 4475,8170 4500,8170 4525,8170 4550,8170 4576,8170 4601,8170 4626,8170 4652,8170 4677,8170 4702,8170 4728,8170 4753,8170 4778,8170 4803,8170 4829,8170 4854,8171"/>
 <path fill="none" stroke="rgb(255,211,32)" stroke-width="80" stroke-linejoin="round" d="M 5360,8171 L 5385,8170 5411,8170 5436,8170 5461,8170 5487,8170 5512,8170 5537,8170 5563,8170 5588,8170 5613,8170 5638,8170 5664,8170 5689,8170 5714,8170 5740,8170 5765,8170 5790,8170 5816,8170 5841,8170 5866,8171"/>
 <path fill="none" stroke="rgb(255,211,32)" stroke-width="80" stroke-linejoin="round" d="M 6372,8171 L 6398,8170 6423,8169 6448,8168 6474,8167 6499,8167 6524,8166 6549,8165 6575,8164 6600,8164 6625,8163 6651,8163 6676,8163 6701,8163 6727,8163 6752,8163 6777,8164 6802,8165 6828,8167 6853,8168 6878,8171"/>
 <path fill="none" stroke="rgb(255,211,32)" stroke-width="80" stroke-linejoin="round" d="M 7384,8171 L 7410,8161 7435,8151 7460,8139 7486,8128 7511,8116 7536,8105 7562,8094 7587,8084 7612,8075 7638,8068 7663,8064 7688,8061 7713,8061 7739,8065 7764,8072 7789,8082 7815,8097 7840,8117 7865,8141 7891,8171"/>
 <path fill="none" stroke="rgb(255,211,32)" stroke-width="80" stroke-linejoin="round" d="M 8396,8171 L 8421,8040 8446,7891 8472,7725 8497,7545 8522,7351 8547,7147 8573,6935 8598,6716 8623,6492 8649,6265 8674,6039 8699,5813 8725,5592 8750,5376 8775,5167 8800,4969 8826,4782 8851,4608 8876,4452 8902,4312 8927,4192 8952,4090 8978,4006 9003,3938 9028,3887 9054,3849 9079,3825 9104,3812 9129,3811 9155,3820 9180,3838 9205,3864 9231,3897 9256,3935 9281,3977 9307,4023 9332,4072 9357,4122 9382,4171 9408,4220 9433,4268 9458,4313 9484,4356 9509,4398 9534,4438 9560,4477 9585,4513 9610,4549 9636,4584 9661,4617 9686,4650 9711,4681 9737,4712 9762,4742 9787,4771 9813,4800 9838,4828 9863,4856 9889,4884 9914,4911 9939,4938 9964,4966 9990,4993 10015,5019 10040,5045 10066,5071 10091,5096 10116,5120 10142,5143 10167,5165 10192,5186 10218,5205 10243,5224 10268,5241 10293,5256 10319,5270 10344,5282 10369,5292 10395,5300 10420,5307 10445,5311 10471,5313 10496,5313 10521,5311 10546,5307 10572,5302 10597,5296 10622,5288 10648,5279 10673,5268 10698,5257 10724,5245 10749,5232 10774,5219 10800,5205 10825,5190 10850,5176 10875,5161 10901,5146 10926,5131 10951,5117 10977,5102 11002,5089 11027,5076 11053,5063 11078,5052 11103,5042 11128,5034 11154,5027 11179,5021 11204,5018 11230,5016 11255,5017 11280,5020 11306,5026 11331,5034 11356,5046 11381,5060 11407,5077 11432,5098 11457,5122 11483,5150 11508,5180 11533,5212 11559,5247 11584,5282 11609,5319 11635,5356 11660,5394 11685,5431 11710,5467 11736,5502 11761,5536 11786,5568 11812,5598 11837,5624 11862,5648 11888,5667 11913,5683 11938,5694 11963,5701 11989,5702 12014,5700 12039,5694 12065,5684 12090,5671 12115,5654 12141,5636 12166,5615 12191,5592 12217,5568 12242,5542 12267,5515 12292,5488 12318,5461 12343,5434 12368,5407 12394,5381 12419,5355 12444,5332 12470,5310 12495,5290 12520,5271 12545,5254 12571,5238 12596,5224 12621,5211 12647,5199 12672,5188 12697,5178 12723,5169 12748,5160 12773,5153 12799,5146 12824,5139 12849,5133 12874,5128 12900,5122 12925,5117 12950,5112"/>
 <path fill="none" stroke="rgb(87,157,28)" stroke-width="80" stroke-linejoin="round" d=""/>
 <path fill="none" stroke="rgb(87,157,28)" stroke-width="80" stroke-linejoin="round" d="M 1619,8171 L 1640,8150 1666,8120 1691,8084 1716,8041 1742,7991 1767,7933 1792,7867 1818,7793 1843,7709 1868,7618 1893,7520 1919,7416 1944,7308 1969,7196 1995,7081 2020,6964 2045,6847 2071,6731 2096,6616 2121,6504 2147,6396 2172,6292 2197,6195 2222,6104 2248,6022 2273,5948 2298,5885 2324,5833 2349,5792 2374,5764 2400,5745 2425,5737 2450,5737 2475,5745 2501,5761 2526,5782 2551,5809 2577,5841 2602,5876 2627,5914 2653,5954 2678,5995 2703,6037 2729,6078 2754,6117 2779,6154 2804,6188 2830,6218 2855,6244 2880,6264 2906,6281 2931,6293 2956,6302 2982,6308 3007,6310 3032,6310 3057,6307 3083,6302 3108,6296 3133,6288 3159,6279 3184,6269 3209,6258 3235,6247 3260,6236 3285,6225 3311,6216 3336,6207 3361,6199 3386,6192 3412,6187 3437,6182 3462,6177 3488,6174 3513,6170 3538,6167 3564,6163 3589,6159 3614,6155 3639,6150 3665,6144 3690,6138 3715,6130 3741,6122 3766,6111 3791,6099 3817,6086 3842,6070 3867,6053 3893,6033 3918,6013 3943,5991 3968,5968 3994,5946 4019,5923 4044,5900 4070,5879 4095,5858 4120,5839 4146,5821 4171,5806 4196,5793 4221,5782 4247,5775 4272,5772 4297,5772 4323,5777 4348,5786 4373,5800 4399,5818 4424,5840 4449,5865 4475,5892 4500,5922 4525,5952 4550,5983 4576,6015 4601,6046 4626,6076 4652,6104 4677,6129 4702,6152 4728,6171 4753,6186 4778,6197 4803,6202 4829,6201 4854,6193 4879,6179 4905,6158 4930,6131 4955,6099 4981,6063 5006,6023 5031,5979 5056,5934 5082,5887 5107,5839 5132,5790 5158,5742 5183,5695 5208,5650 5234,5607 5259,5567 5284,5531 5310,5500 5335,5473 5360,5453 5385,5439 5411,5431 5436,5428 5461,5432 5487,5440 5512,5453 5537,5470 5563,5492 5588,5517 5613,5545 5638,5576 5664,5610 5689,5646 5714,5684 5740,5723 5765,5763 5790,5804 5816,5846 5841,5887 5866,5928 5892,5968 5917,6008 5942,6045 5967,6081 5993,6115 6018,6145 6043,6173 6069,6198 6094,6219 6119,6235 6145,6247 6170,6254 6195,6256 6220,6252 6246,6241 6271,6225 6296,6201 6322,6171 6347,6132 6372,6086 6398,6031 6423,5969 6448,5901 6474,5828 6499,5751 6524,5671 6549,5589 6575,5506 6600,5423 6625,5342 6651,5264 6676,5189 6701,5118 6727,5054 6752,4996 6777,4946 6802,4906 6828,4875 6853,4856 6878,4849 6904,4855 6929,4873 6954,4903 6980,4943 7005,4992 7030,5049 7056,5114 7081,5184 7106,5260 7131,5340 7157,5423 7182,5508 7207,5594 7233,5680 7258,5764 7283,5847 7309,5926 7334,6001 7359,6071 7384,6135 7410,6191 7435,6240 7460,6282 7486,6317 7511,6345 7536,6366 7562,6381 7587,6389 7612,6390 7638,6386 7663,6374 7688,6357 7713,6334 7739,6304 7764,6269 7789,6228 7815,6181 7840,6129 7865,6071 7891,6008 7916,5940 7941,5867 7966,5790 7992,5710 8016,5628 8041,5544 8067,5458 8092,5372 8117,5287 8143,5202 8168,5118 8193,5037 8218,4959 8244,4884 8269,4813 8294,4747 8320,4687 8345,4633 8370,4586 8396,4547 8421,4515 8446,4493 8472,4477 8497,4468 8522,4466 8547,4470 8573,4480 8598,4496 8623,4516 8649,4542 8674,4572 8699,4606 8725,4644 8750,4686 8775,4730 8800,4777 8826,4825 8851,4876 8876,4928 8902,4981 8927,5035 8952,5089 8978,5142 9003,5195 9028,5246 9054,5296 9079,5344 9104,5388 9129,5430 9155,5468 9180,5502 9205,5531 9231,5555 9256,5574 9281,5586 9307,5592 9332,5592 9357,5583 9382,5567 9408,5542 9433,5509 9458,5468 9484,5420 9509,5366 9534,5307 9560,5244 9585,5179 9610,5111 9636,5043 9661,4974 9686,4907 9711,4842 9737,4780 9762,4721 9787,4668 9813,4621 9838,4581 9863,4549 9889,4527 9914,4514 9939,4511 9964,4519 9990,4537 10015,4563 10040,4597 10066,4638 10091,4685 10116,4737 10142,4794 10167,4855 10192,4919 10218,4985 10243,5052 10268,5120 10293,5187 10319,5254 10344,5319 10369,5381 10395,5439 10420,5494 10445,5543 10471,5588 10496,5627 10521,5662 10546,5693 10572,5720 10597,5742 10622,5761 10648,5776 10673,5787 10698,5795 10724,5799 10749,5801 10774,5799 10800,5795 10825,5788 10850,5779 10875,5768 10901,5754 10926,5739 10951,5722 10977,5703 11002,5683 11027,5662 11053,5640 11078,5617 11103,5593 11128,5569 11154,5545 11179,5521 11204,5497 11230,5473 11255,5450 11280,5427 11306,5406 11331,5385 11356,5366 11381,5348 11407,5332 11432,5318 11457,5306 11483,5296 11508,5288 11533,5281 11559,5276 11584,5273 11609,5271 11635,5271 11660,5272 11685,5273 11710,5276 11736,5280 11761,5285 11786,5291 11812,5297 11837,5304 11862,5311 11888,5318 11913,5326 11938,5334 11963,5342 11989,5350 12014,5357 12039,5365 12065,5373 12090,5380 12115,5386 12141,5393 12166,5398 12191,5404 12217,5408 12242,5412 12267,5415 12292,5417 12318,5418 12343,5418 12368,5418 12394,5416 12419,5412 12444,5408 12470,5402 12495,5395 12520,5387 12545,5377 12571,5367 12596,5355 12621,5343 12647,5329 12672,5315 12697,5300 12723,5285 12748,5269 12773,5252 12799,5235 12824,5217 12849,5199 12874,5181 12900,5163 12925,5144 12950,5125"/>
 <path fill="none" stroke="rgb(255,66,14)" stroke-width="80" stroke-linejoin="round" d="M 1312,6033 L 1337,6034 1362,6035 1387,6036 1413,6037 1438,6037 1463,6038 1489,6038 1514,6038 1539,6037 1565,6036 1590,6035 1615,6034 1640,6031 1666,6029 1691,6026 1716,6022 1742,6018 1767,6012 1792,6007 1818,6000 1843,5993 1868,5985 1893,5976 1919,5967 1944,5958 1969,5948 1995,5938 2020,5928 2045,5918 2071,5908 2096,5898 2121,5889 2147,5879 2172,5871 2197,5863 2222,5855 2248,5849 2273,5843 2298,5838 2324,5835 2349,5832 2374,5831 2400,5830 2425,5830 2450,5832 2475,5834 2501,5836 2526,5840 2551,5843 2577,5847 2602,5852 2627,5856 2653,5861 2678,5866 2703,5871 2729,5875 2754,5880 2779,5884 2804,5888 2830,5891 2855,5894 2880,5896 2906,5898 2931,5900 2956,5902 2982,5904 3007,5906 3032,5908 3057,5910 3083,5914 3108,5917 3133,5922 3159,5927 3184,5933 3209,5941 3235,5949 3260,5959 3285,5971 3311,5984 3336,5998 3361,6015 3386,6032 3412,6051 3437,6071 3462,6091 3488,6110 3513,6130 3538,6149 3564,6167 3589,6183 3614,6198 3639,6210 3665,6220 3690,6227 3715,6231 3741,6232 3766,6228 3791,6221 3817,6208 3842,6191 3867,6169 3893,6141 3918,6109 3943,6074 3968,6035 3994,5993 4019,5949 4044,5902 4070,5854 4095,5806 4120,5756 4146,5707 4171,5658 4196,5610 4221,5563 4247,5519 4272,5477 4297,5437 4323,5401 4348,5369 4373,5341 4399,5317 4424,5297 4449,5282 4475,5270 4500,5262 4525,5258 4550,5258 4576,5261 4601,5267 4626,5277 4652,5290 4677,5306 4702,5326 4728,5348 4753,5373 4778,5401 4803,5432 4829,5466 4854,5501 4879,5540 4905,5580 4930,5622 4955,5665 4981,5708 5006,5753 5031,5797 5056,5840 5082,5883 5107,5925 5132,5965 5158,6003 5183,6038 5208,6071 5234,6100 5259,6126 5284,6147 5310,6164 5335,6176 5360,6183 5385,6185 5411,6181 5436,6172 5461,6159 5487,6142 5512,6123 5537,6100 5563,6076 5588,6050 5613,6022 5638,5994 5664,5966 5689,5938 5714,5912 5740,5886 5765,5863 5790,5841 5816,5823 5841,5808 5866,5798 5892,5791 5917,5788 5942,5790 5967,5794 5993,5801 6018,5811 6043,5823 6069,5837 6094,5852 6119,5868 6145,5884 6170,5901 6195,5918 6220,5933 6246,5948 6271,5962 6296,5974 6322,5983 6347,5990 6372,5994 6398,5995 6423,5993 6448,5987 6474,5978 6499,5966 6524,5950 6549,5931 6575,5909 6600,5884 6625,5855 6651,5823 6676,5788 6701,5750 6727,5709 6752,5664 6777,5617 6802,5566 6828,5512 6853,5455 6878,5394 6904,5331 6929,5265 6954,5198 6980,5129 7005,5059 7030,4990 7056,4921 7081,4854 7106,4788 7131,4725 7157,4665 7182,4609 7207,4558 7233,4511 7258,4471 7283,4437 7309,4409 7334,4389 7359,4377 7384,4374 7410,4381 7435,4396 7460,4419 7486,4450 7511,4488 7536,4531 7562,4581 7587,4635 7612,4695 7638,4758 7663,4824 7688,4892 7713,4963 7739,5034 7764,5107 7789,5179 7815,5250 7840,5321 7865,5389 7891,5455 7916,5517 7941,5577 7966,5633 7992,5685 8016,5734 8041,5780 8067,5822 8092,5860 8117,5895 8143,5926 8168,5953 8193,5976 8218,5995 8244,6010 8269,6021 8294,6028 8320,6030 8345,6029 8370,6022 8396,6012 8421,5997 8446,5978 8472,5955 8497,5928 8522,5899 8547,5866 8573,5831 8598,5794 8623,5755 8649,5714 8674,5673 8699,5630 8725,5587 8750,5544 8775,5501 8800,5458 8826,5416 8851,5375 8876,5336 8902,5299 8927,5264 8952,5231 8978,5201 9003,5175 9028,5153 9054,5135 9079,5123 9104,5115 9129,5113 9155,5118 9180,5129 9205,5147 9231,5173 9256,5207 9281,5250 9307,5302 9332,5363 9357,5433 9382,5515 9408,5607 9433,5710 9458,5823 9484,5944 9509,6074 9534,6209 9560,6350 9585,6495 9610,6642 9636,6791 9661,6940 9686,7088 9711,7234 9737,7376 9762,7513 9787,7645 9813,7769 9838,7885 9863,7992 9889,8087 9914,8171"/>
 <path fill="none" stroke="rgb(255,66,14)" stroke-width="80" stroke-linejoin="round" d="M 10420,8171 L 10445,8152 10471,8136 10496,8123 10521,8114 10546,8107 10572,8102 10597,8100 10622,8099 10648,8101 10673,8104 10698,8108 10724,8113 10749,8120 10774,8127 10800,8134 10825,8142 10850,8150 10875,8157 10901,8164 10926,8171"/>
 <path fill="none" stroke="rgb(255,66,14)" stroke-width="80" stroke-linejoin="round" d="M 11432,8171 L 11457,8167 11483,8164 11508,8161 11533,8158 11559,8155 11584,8152 11609,8150 11635,8148 11660,8146 11685,8145 11710,8145 11736,8144 11761,8145 11786,8146 11812,8148 11837,8151 11862,8154 11888,8159 11913,8164 11938,8171"/>
 <path fill="none" stroke="rgb(255,66,14)" stroke-width="80" stroke-linejoin="round" d="M 12444,8171 L 12470,8144 12495,8114 12520,8080 12545,8042 12571,8001 12596,7957 12621,7910 12647,7860 12672,7807 12697,7753 12723,7696 12748,7638 12773,7577 12799,7516 12824,7453 12849,7389 12874,7324 12900,7258 12925,7192 12950,7126"/>
 <path fill="none" stroke="rgb(126,0,33)" stroke-width="80" stroke-linejoin="round" d="M 1312,5891 L 1337,5912 1362,5934 1387,5955 1413,5976 1438,5996 1463,6017 1489,6037 1514,6056 1539,6075 1565,6094 1590,6112 1615,6129 1640,6145 1666,6160 1691,6175 1716,6189 1742,6201 1767,6213 1792,6223 1818,6232 1843,6240 1868,6246 1893,6251 1919,6255 1944,6257 1969,6257 1995,6256 2020,6253 2045,6249 2071,6242 2096,6234 2121,6223 2147,6211 2172,6196 2197,6180 2222,6161 2248,6140 2273,6116 2298,6091 2324,6062 2349,6032 2374,5999 2400,5964 2425,5928 2450,5891 2475,5852 2501,5813 2526,5774 2551,5735 2577,5696 2602,5657 2627,5620 2653,5584 2678,5550 2703,5517 2729,5487 2754,5459 2779,5434 2804,5412 2830,5394 2855,5380 2880,5369 2906,5361 2931,5357 2956,5356 2982,5357 3007,5361 3032,5368 3057,5376 3083,5386 3108,5399 3133,5412 3159,5427 3184,5443 3209,5460 3235,5477 3260,5495 3285,5514 3311,5532 3336,5550 3361,5568 3386,5585 3412,5602 3437,5619 3462,5635 3488,5650 3513,5665 3538,5679 3564,5693 3589,5706 3614,5718 3639,5730 3665,5741 3690,5751 3715,5761 3741,5770 3766,5777 3791,5784 3817,5790 3842,5796 3867,5800 3893,5803 3918,5806 3943,5807 3968,5808 3994,5808 4019,5808 4044,5807 4070,5805 4095,5803 4120,5801 4146,5798 4171,5794 4196,5791 4221,5787 4247,5782 4272,5778 4297,5774 4323,5769 4348,5764 4373,5760 4399,5755 4424,5751 4449,5746 4475,5741 4500,5737 4525,5732 4550,5728 4576,5723 4601,5718 4626,5713 4652,5708 4677,5703 4702,5698 4728,5693 4753,5688 4778,5682 4803,5677 4829,5671 4854,5665 4879,5659 4905,5653 4930,5647 4955,5641 4981,5636 5006,5631 5031,5626 5056,5621 5082,5618 5107,5615 5132,5613 5158,5612 5183,5612 5208,5613 5234,5615 5259,5618 5284,5623 5310,5630 5335,5638 5360,5648 5385,5659 5411,5672 5436,5686 5461,5702 5487,5718 5512,5735 5537,5752 5563,5769 5588,5786 5613,5803 5638,5818 5664,5833 5689,5847 5714,5859 5740,5870 5765,5879 5790,5885 5816,5889 5841,5891 5866,5889 5892,5884 5917,5877 5942,5867 5967,5854 5993,5839 6018,5822 6043,5804 6069,5784 6094,5763 6119,5741 6145,5718 6170,5695 6195,5672 6220,5649 6246,5626 6271,5604 6296,5582 6322,5562 6347,5542 6372,5525 6398,5509 6423,5495 6448,5483 6474,5472 6499,5464 6524,5457 6549,5451 6575,5448 6600,5446 6625,5446 6651,5448 6676,5452 6701,5457 6727,5464 6752,5472 6777,5483 6802,5495 6828,5508 6853,5523 6878,5540 6904,5559 6929,5578 6954,5599 6980,5619 7005,5639 7030,5658 7056,5676 7081,5692 7106,5706 7131,5717 7157,5725 7182,5729 7207,5729 7233,5724 7258,5714 7283,5698 7309,5676 7334,5647 7359,5611 7384,5568 7410,5516 7435,5458 7460,5394 7486,5326 7511,5255 7536,5183 7562,5111 7587,5040 7612,4972 7638,4908 7663,4849 7688,4797 7713,4753 7739,4718 7764,4695 7789,4683 7815,4685 7840,4701 7865,4734 7891,4784 7916,4853 7941,4939 7966,5041 7992,5157 8016,5285 8041,5424 8067,5572 8092,5727 8117,5889 8143,6055 8168,6224 8193,6394 8218,6563 8244,6730 8269,6893 8294,7051 8320,7203 8345,7345 8370,7477 8396,7598 8421,7705 8446,7800 8472,7882 8497,7954 8522,8015 8547,8066 8573,8108 8598,8142 8623,8168 8626,8171"/>
 <path fill="none" stroke="rgb(126,0,33)" stroke-width="80" stroke-linejoin="round" d="M 8902,8171 L 8927,8164 8952,8158 8978,8153 9003,8150 9028,8148 9054,8146 9079,8145 9104,8145 9129,8146 9155,8147 9180,8148 9205,8150 9231,8153 9256,8155 9281,8158 9307,8161 9332,8163 9357,8166 9382,8168 9408,8171"/>
 <path fill="none" stroke="rgb(126,0,33)" stroke-width="80" stroke-linejoin="round" d="M 9914,8171 L 9939,8170 9964,8170 9990,8170 10015,8169 10040,8169 10066,8169 10091,8169 10116,8169 10142,8169 10167,8170 10192,8170 10218,8170 10243,8170 10268,8170 10293,8170 10319,8170 10323,8171"/>
 <path fill="none" stroke="rgb(126,0,33)" stroke-width="80" stroke-linejoin="round" d="M 10420,8171 L 10445,8170 10471,8170 10496,8170 10521,8170 10546,8169 10572,8169 10597,8169 10622,8168 10648,8168 10673,8168 10698,8168 10724,8168 10749,8168 10774,8168 10800,8168 10825,8168 10850,8168 10875,8169 10901,8170 10926,8171"/>
 <path fill="none" stroke="rgb(126,0,33)" stroke-width="80" stroke-linejoin="round" d="M 11432,8171 L 11457,8167 11483,8162 11508,8158 11533,8153 11559,8148 11584,8143 11609,8139 11635,8134 11660,8131 11685,8128 11710,8126 11736,8125 11761,8125 11786,8127 11812,8129 11837,8134 11862,8140 11888,8148 11913,8158 11938,8171"/>
 <path fill="none" stroke="rgb(126,0,33)" stroke-width="80" stroke-linejoin="round" d="M 12444,8171 L 12470,8116 12495,8054 12520,7983 12545,7906 12571,7821 12596,7730 12621,7633 12647,7530 12672,7422 12697,7310 12723,7193 12748,7072 12773,6947 12799,6820 12824,6690 12849,6558 12874,6424 12900,6288 12925,6152 12950,6016"/>
 <text class="TextShape"><tspan class="TextParagraph" font-family="Liberation Sans, sans-serif" font-size="353px" font-weight="400"><tspan class="TextPosition" x="1219" y="8739"><tspan fill="rgb(0,0,0)" stroke="none">0</tspan></tspan></tspan></text>
 <text class="TextShape"><tspan class="TextParagraph" font-family="Liberation Sans, sans-serif" font-size="353px" font-weight="400"><tspan class="TextPosition" x="3749" y="8739"><tspan fill="rgb(0,0,0)" stroke="none">5</tspan></tspan></tspan></text>
 <text class="TextShape"><tspan class="TextParagraph" font-family="Liberation Sans, sans-serif" font-size="353px" font-weight="400"><tspan class="TextPosition" x="6187" y="8739"><tspan fill="rgb(0,0,0)" stroke="none">10</tspan></tspan></tspan></text>
 <text class="TextShape"><tspan class="TextParagraph" font-family="Liberation Sans, sans-serif" font-size="353px" font-weight="400"><tspan class="TextPosition" x="8718" y="8739"><tspan fill="rgb(0,0,0)" stroke="none">15</tspan></tspan></tspan></text>
 <text class="TextShape"><tspan class="TextParagraph" font-family="Liberation Sans, sans-serif" font-size="353px" font-weight="400"><tspan class="TextPosition" x="11248" y="8739"><tspan fill="rgb(0,0,0)" stroke="none">20</tspan></tspan></tspan></text>
 <text class="TextShape"><tspan class="TextParagraph" font-family="Liberation Sans, sans-serif" font-size="353px" font-weight="400"><tspan class="TextPosition" x="13779" y="8739"><tspan fill="rgb(0,0,0)" stroke="none">25</tspan></tspan></tspan></text>
 <text class="TextShape"><tspan class="TextParagraph" font-family="Liberation Sans, sans-serif" font-size="353px" font-weight="400"><tspan class="TextPosition" x="877" y="8292"><tspan fill="rgb(0,0,0)" stroke="none">0</tspan></tspan></tspan></text>
 <text class="TextShape"><tspan class="TextParagraph" font-family="Liberation Sans, sans-serif" font-size="353px" font-weight="400"><tspan class="TextPosition" x="506" y="7317"><tspan fill="rgb(0,0,0)" stroke="none">500</tspan></tspan></tspan></text>
 <text class="TextShape"><tspan class="TextParagraph" font-family="Liberation Sans, sans-serif" font-size="353px" font-weight="400"><tspan class="TextPosition" x="321" y="6343"><tspan fill="rgb(0,0,0)" stroke="none">1000</tspan></tspan></tspan></text>
 <text class="TextShape"><tspan class="TextParagraph" font-family="Liberation Sans, sans-serif" font-size="353px" font-weight="400"><tspan class="TextPosition" x="321" y="5369"><tspan fill="rgb(0,0,0)" stroke="none">1500</tspan></tspan></tspan></text>
 <text class="TextShape"><tspan class="TextParagraph" font-family="Liberation Sans, sans-serif" font-size="353px" font-weight="400"><tspan class="TextPosition" x="321" y="4395"><tspan fill="rgb(0,0,0)" stroke="none">2000</tspan></tspan></tspan></text>
 <text class="TextShape"><tspan class="TextParagraph" font-family="Liberation Sans, sans-serif" font-size="353px" font-weight="400"><tspan class="TextPosition" x="321" y="3421"><tspan fill="rgb(0,0,0)" stroke="none">2500</tspan></tspan></tspan></text>
 <text class="TextShape"><tspan class="TextParagraph" font-family="Liberation Sans, sans-serif" font-size="353px" font-weight="400"><tspan class="TextPosition" x="321" y="2447"><tspan fill="rgb(0,0,0)" stroke="none">3000</tspan></tspan></tspan></text>
 <text class="TextShape"><tspan class="TextParagraph" font-family="Liberation Sans, sans-serif" font-size="353px" font-weight="400"><tspan class="TextPosition" x="321" y="1473"><tspan fill="rgb(0,0,0)" stroke="none">3500</tspan></tspan></tspan></text>
 <text class="TextShape"><tspan class="TextParagraph" font-family="Liberation Sans, sans-serif" font-size="353px" font-weight="400"><tspan class="TextPosition" x="321" y="499"><tspan fill="rgb(0,0,0)" stroke="none">4000</tspan></tspan></tspan></text>
 <path fill="none" stroke="rgb(126,0,33)" stroke-width="80" stroke-linejoin="round" d="M 14586,3005 L 15386,3005"/>
 <path fill="none" stroke="rgb(255,66,14)" stroke-width="80" stroke-linejoin="round" d="M 14586,3503 L 15386,3503"/>
 <path fill="none" stroke="rgb(87,157,28)" stroke-width="80" stroke-linejoin="round" d="M 14586,4001 L 15386,4001"/>
 <path fill="none" stroke="rgb(255,211,32)" stroke-width="80" stroke-linejoin="round" d="M 14586,4499 L 15386,4499"/>
 <path fill="none" stroke="rgb(131,202,255)" stroke-width="80" stroke-linejoin="round" d="M 14586,4996 L 15386,4996"/>
 <path fill="none" stroke="rgb(49,64,4)" stroke-width="80" stroke-linejoin="round" d="M 14586,5494 L 15386,5494"/>
 <path fill="none" stroke="rgb(174,207,0)" stroke-width="80" stroke-linejoin="round" d="M 14586,5992 L 15386,5992"/>
 <text class="TextShape"><tspan class="TextParagraph" font-family="Liberation Sans, sans-serif" font-size="353px" font-weight="400"><tspan class="TextPosition" x="15486" y="3125"><tspan fill="rgb(0,0,0)" stroke="none">1</tspan></tspan></tspan></text>
 <text class="TextShape"><tspan class="TextParagraph" font-family="Liberation Sans, sans-serif" font-size="353px" font-weight="400"><tspan class="TextPosition" x="15486" y="3623"><tspan fill="rgb(0,0,0)" stroke="none">2</tspan></tspan></tspan></text>
 <text class="TextShape"><tspan class="TextParagraph" font-family="Liberation Sans, sans-serif" font-size="353px" font-weight="400"><tspan class="TextPosition" x="15486" y="4121"><tspan fill="rgb(0,0,0)" stroke="none">3</tspan></tspan></tspan></text>
 <text class="TextShape"><tspan class="TextParagraph" font-family="Liberation Sans, sans-serif" font-size="353px" font-weight="400"><tspan class="TextPosition" x="15486" y="4618"><tspan fill="rgb(0,0,0)" stroke="none">4</tspan></tspan></tspan></text>
 <text class="TextShape"><tspan class="TextParagraph" font-family="Liberation Sans, sans-serif" font-size="353px" font-weight="400"><tspan class="TextPosition" x="15486" y="5116"><tspan fill="rgb(0,0,0)" stroke="none">5</tspan></tspan></tspan></text>
 <text class="TextShape"><tspan class="TextParagraph" font-family="Liberation Sans, sans-serif" font-size="353px" font-weight="400"><tspan class="TextPosition" x="15486" y="5614"><tspan fill="rgb(0,0,0)" stroke="none">6</tspan></tspan></tspan></text>
 <text class="TextShape"><tspan class="TextParagraph" font-family="Liberation Sans, sans-serif" font-size="353px" font-weight="400"><tspan class="TextPosition" x="15486" y="6112"><tspan fill="rgb(0,0,0)" stroke="none">7</tspan></tspan></tspan></text>
</svg>