<?xml version="1.0" encoding="UTF-8" standalone="no"?>
<svg
   xmlns:dc="http://purl.org/dc/elements/1.1/"
   xmlns:cc="http://creativecommons.org/ns#"
   xmlns:rdf="http://www.w3.org/1999/02/22-rdf-syntax-ns#"
   xmlns:svg="http://www.w3.org/2000/svg"
   xmlns="http://www.w3.org/2000/svg"
   xmlns:sodipodi="http://sodipodi.sourceforge.net/DTD/sodipodi-0.dtd"
   xmlns:inkscape="http://www.inkscape.org/namespaces/inkscape"
   width="481.34375"
   height="70"
   viewBox="0 0 13584.59 1975.5555"
   version="1.1"
   xml:space="preserve"
   id="svg2"
   inkscape:version="0.48.5 r10040"
   sodipodi:docname="waves.svg"
   style="stroke-width:28.22200012;stroke-linejoin:round"><metadata
     id="metadata386"><rdf:RDF><cc:Work
         rdf:about=""><dc:format>image/svg+xml</dc:format><dc:type
           rdf:resource="http://purl.org/dc/dcmitype/StillImage" /></cc:Work></rdf:RDF></metadata><defs
     id="defs384" /><sodipodi:namedview
     pagecolor="#ffffff"
     bordercolor="#666666"
     borderopacity="1"
     objecttolerance="10"
     gridtolerance="10"
     guidetolerance="10"
     inkscape:pageopacity="0"
     inkscape:pageshadow="2"
     inkscape:window-width="1440"
     inkscape:window-height="849"
     id="namedview382"
     showgrid="false"
     inkscape:zoom="1.5515887"
     inkscape:cx="261.19218"
     inkscape:cy="106.10981"
     inkscape:window-x="0"
     inkscape:window-y="27"
     inkscape:window-maximized="1"
     inkscape:current-layer="layer9"
     inkscape:snap-bbox="true"
     inkscape:bbox-nodes="false"
     inkscape:object-paths="true"
     inkscape:snap-intersection-paths="true"
     inkscape:object-nodes="true"
     inkscape:snap-smooth-nodes="true"
     inkscape:bbox-paths="true"
     inkscape:snap-nodes="true"
     inkscape:snap-midpoints="true"
     inkscape:snap-page="true"
     fit-margin-top="0"
     fit-margin-left="0"
     fit-margin-right="0"
     fit-margin-bottom="0" /><g
     inkscape:groupmode="layer"
     id="layer2"
     inkscape:label="bg"
     style="display:inline"><rect
       style="fill:#ffffff;fill-opacity:1;stroke:#ffffff;stroke-width:37.92008209;stroke-linecap:round;stroke-linejoin:round;stroke-miterlimit:4;stroke-opacity:1;stroke-dasharray:none;stroke-dashoffset:1.00000001"
       id="rect3767"
       width="13546.67"
       height="1937.6354"
       x="18.960041"
       y="18.960033" /></g><g
     inkscape:groupmode="layer"
     id="layer9"
     inkscape:label="7"
     style="display:inline"
     transform="translate(0,-7024.4447)"><path
       style="fill:none;stroke:#000000;stroke-width:28.22222137;stroke-miterlimit:4;stroke-dasharray:none"
       d="M 4752.7986,7504.2224 4723.6944,7508.6321 4693.7083,7521.8613 4665.4861,7544.7918 4635.5,7576.5418 4606.3958,7617.1113 4576.4097,7664.7363 4547.3055,7718.5349 4517.3194,7778.5071 4489.0972,7842.889 4459.1111,7910.7988 4430.0069,7982.2363 4400.0208,8055.4377 4371.7986,8129.521 4341.8125,8204.4863 4312.7083,8279.4515 4282.7222,8352.6529 4254.5,8423.2085 4224.5139,8491.1182 4195.4097,8555.5002 4165.4236,8614.5904 4137.2014,8667.5071 4107.2152,8714.2501 3520.7222,8714.2501 3490.7361,8703.6668 3461.6319,8694.8474 3431.6458,8687.7918 3403.4236,8682.5001 3373.4375,8678.9724 3344.3333,8676.3265 3314.3472,8675.4446 3286.125,8674.5626 3256.1389,8676.3265 3227.0347,8677.2085 3197.0486,8679.8543 3167.9444,8683.3821 3137.9583,8686.9099 3109.7361,8690.4376 3079.75,8694.8474 3050.6458,8699.2571 3020.6597,8702.7849 2992.4375,8707.1946 2962.4514,8710.7224 2933.3472,8714.2501 586.4931,8714.2501 556.5069,8711.6043 528.2847,8708.0765 498.2986,8704.5488 469.1944,8700.139 439.2083,8695.7293 410.9861,8691.3196 381,8686.0279 351.8958,8680.7363 321.9097,8675.4446 293.6875,8669.271 263.7014,8663.9793 234.5972,8656.9238 204.6111,8650.7502 176.3889,8644.5765 146.4028,8637.521 117.2986,8630.4654 87.312496,8623.4099 59.0903,8617.2363 29.1042,8610.1807 0,8602.2432 0,8714.2501 0,9000.0001 13583.708,9000.0001 13583.708,8714.2501 12690.298,8714.2501 12672.659,8712.4863 12644.437,8708.0765 12614.451,8702.7849 12585.347,8694.8474 12555.361,8686.0279 12527.138,8674.5626 12497.152,8660.4515 12468.048,8644.5765 12438.062,8626.0557 12409.84,8604.889 12379.854,8580.1946 12350.75,8552.8543 12320.763,8521.1043 12291.659,8486.7085 12262.555,8449.6668 12233.451,8409.0974 12203.465,8365.8821 12174.361,8321.7849 12144.375,8275.0418 12116.152,8227.4168 12086.166,8178.9099 12057.062,8130.4029 12027.076,8081.896 11998.854,8033.389 11968.868,7985.764 11939.763,7939.021 11909.777,7894.0418 11881.555,7850.8265 11851.569,7810.2571 11822.465,7772.3335 11792.479,7737.9377 11764.257,7706.1877 11734.27,7678.8474 11705.166,7655.0349 11675.18,7636.514 11646.958,7620.639 11616.972,7609.1738 11587.868,7600.3543 11557.882,7595.0627 11529.659,7592.4168 11499.673,7592.4168 11470.569,7595.9446 11440.583,7600.3543 11412.361,7607.4099 11382.375,7616.2293 11353.27,7625.9307 11323.284,7637.396 11295.062,7649.7432 11265.076,7663.8543 11235.972,7677.0835 11205.986,7692.0765 11177.764,7706.1877 11147.777,7721.1807 11118.673,7735.2918 11088.687,7749.4029 11059.583,7762.6321 11030.479,7776.7432 11001.375,7790.8543 10971.389,7805.8474 10941.402,7819.9585 10912.298,7835.8335 10883.194,7850.8265 10854.09,7867.5835 10824.104,7884.3404 10795,7902.8613 10765.014,7922.264 10736.791,7942.5488 10706.805,7963.7154 10677.701,7986.646 10647.715,8011.3404 10619.493,8036.9168 10589.507,8064.2571 10560.402,8094.2432 10530.416,8125.1113 10502.194,8157.7432 10472.208,8192.139 10443.104,8227.4168 10413.118,8263.5765 10384.895,8299.7363 10354.909,8336.7779 10325.805,8373.8196 10295.819,8409.9793 10267.597,8446.139 10237.611,8481.4168 10208.507,8514.9307 10178.52,8547.5627 10150.298,8578.4307 10120.312,8607.5349 10091.208,8634.8752 10061.222,8658.6876 10033,8680.7363 10003.014,8699.2571 9973.9093,8714.2501 9678.4583,8714.2501 9651.1183,8705.4307 9622.0143,8695.7293 9592.0273,8685.146 9562.9233,8674.5626 9532.9373,8664.8613 9504.7153,8655.1599 9474.7293,8645.4585 9445.6253,8637.521 9415.6393,8630.4654 9387.4163,8625.1738 9357.4303,8621.646 9328.3263,8619.8821 9298.3403,8619.0002 9270.1183,8619.8821 9240.1323,8621.646 9211.0273,8625.1738 9181.0413,8628.7015 9152.8193,8633.9932 9122.8333,8640.1668 9093.7293,8646.3404 9063.7433,8653.396 9035.5203,8660.4515 9005.5343,8667.5071 8976.4303,8675.4446 8946.4443,8682.5001 8918.2223,8689.5557 8888.2363,8696.6113 8859.1323,8702.7849 8829.1453,8708.9585 8800.9233,8714.2501 5867.5763,8714.2501 5838.4722,8708.0765 5808.4861,8701.9029 5779.3819,8693.9654 5749.3958,8684.264 5721.1736,8673.6807 5691.1875,8661.3335 5662.0833,8648.1043 5632.0972,8632.2293 5603.875,8614.5904 5573.8888,8596.0696 5544.7847,8574.021 5514.7986,8550.2085 5486.5763,8523.7502 5456.5902,8495.5279 5427.4861,8463.7779 5397.5,8429.3821 5369.2777,8393.2224 5339.2916,8352.6529 5310.1875,8310.3196 5280.2013,8263.5765 5251.9791,8214.1877 5221.993,8162.1529 5192.8888,8107.4724 5162.9027,8051.9099 5134.6805,7996.3474 5104.6944,7939.9029 5075.5902,7883.4585 5045.6041,7829.6599 5017.3819,7777.6252 4987.3958,7727.3543 4958.2916,7681.4932 4928.3055,7638.2779 4900.0833,7600.3543 4870.0972,7568.6043 4840.993,7541.264 4811.0069,7521.8613 4782.7847,7508.6321 4752.7986,7504.2224 z"
       id="7"
       inkscape:connector-curvature="0" /></g><g
     inkscape:groupmode="layer"
     id="layer8"
     inkscape:label="6"
     style="display:inline"
     transform="translate(0,-7024.4447)"><path
       style="fill:none;stroke:#000000;stroke-width:28.22222137;stroke-miterlimit:4;stroke-dasharray:none;display:inline"
       d="M 11225.389,7024.4446 11197.167,7030.6182 11167.181,7042.9654 11138.077,7062.3682 11108.091,7087.9446 11078.986,7119.6946 11049,7155.8543 11019.014,7197.3057 10989.91,7242.2848 10959.924,7291.6737 10930.82,7344.5904 10900.834,7400.1529 10871.729,7458.3612 10841.743,7517.4515 10813.521,7579.1876 10782.653,7640.9237 10754.431,7704.4237 10724.445,7767.0418 10695.341,7828.7779 10665.354,7890.514 10636.25,7950.4862 10606.264,8008.6945 10577.16,8065.139 10547.174,8118.9376 10518.07,8171.8543 10488.084,8222.1251 10459.861,8270.632 10429.875,8317.3751 10400.771,8361.4723 10370.785,8402.9237 10341.681,8443.4932 10311.695,8481.4168 10282.591,8516.6945 10252.604,8549.3265 10223.5,8580.1945 10193.514,8609.2987 10164.41,8634.8751 10134.424,8658.6876 10106.202,8679.8543 10076.216,8698.3751 10047.111,8715.132 9429.7496,8715.132 9399.7636,8710.7223 9370.6596,8708.0765 9340.6736,8705.4307 9311.5696,8703.6668 9281.5836,8701.9029 9253.3606,8701.0209 9223.3746,8701.0209 9194.2706,8701.0209 9164.2846,8701.0209 9135.1806,8701.9029 9105.1946,8701.9029 9076.0906,8703.6668 9046.1036,8704.5487 9016.9999,8706.3126 8987.0138,8707.1945 8958.7916,8708.9584 8927.9235,8710.7223 8899.7013,8711.6043 8869.7152,8713.3682 8840.611,8715.132 8252.3541,8715.132 8222.368,8713.3682 8193.2638,8712.4862 8163.2777,8710.7223 8134.1735,8709.8404 8104.1874,8708.0765 8075.9652,8707.1945 8045.0971,8705.4307 8016.8749,8704.5487 7986.8888,8703.6668 7957.7846,8702.7848 7927.7985,8702.7848 7898.6944,8702.7848 7868.7082,8702.7848 7839.6041,8702.7848 7809.618,8703.6668 7780.5138,8705.4307 7750.5277,8707.1945 7722.3055,8708.9584 7691.4374,8711.6043 7663.2152,8715.132 7072.3124,8715.132 7044.0902,8701.0209 7014.1041,8685.1459 6984.9999,8667.507 6955.0138,8647.2223 6925.9096,8626.0557 6895.9235,8603.1251 6866.8194,8579.3126 6836.8333,8552.8543 6807.7291,8526.3959 6777.743,8499.0557 6749.5208,8469.9515 6718.6527,8440.8473 6690.4305,8410.8612 6660.4444,8379.9932 6631.3402,8349.1251 6601.3541,8317.3751 6572.2499,8286.507 6542.2638,8254.757 6513.1596,8223.889 6483.1735,8193.0209 6454.0694,8162.1529 6424.0833,8132.1668 6395.861,8102.1807 6364.993,8073.9584 6336.7708,8046.6182 6306.7846,8019.2779 6277.6805,7993.7015 6247.6944,7968.1251 6218.5902,7945.1945 6188.6041,7923.1459 6159.4999,7901.9793 6129.5138,7882.5765 6100.4097,7864.9376 6070.4235,7849.9446 6042.2013,7835.8334 6012.2152,7823.4862 5983.111,7813.7848 5953.1249,7806.7293 5924.0208,7801.4376 5894.0347,7797.9098 5864.9305,7797.9098 5834.9444,7799.6737 5805.8402,7803.2015 5775.8541,7808.4932 5747.6319,7815.5487 5716.7638,7822.6043 5688.5416,7831.4237 5658.5555,7841.1251 5629.4513,7850.8265 5599.4652,7859.6459 5570.361,7868.4654 5540.3749,7877.2848 5511.2708,7885.2223 5481.2847,7892.2779 5452.1805,7897.5696 5422.1944,7901.0973 5393.9722,7902.8612 5363.1041,7901.9793 5334.8819,7898.4515 5304.8958,7893.1598 5275.7916,7884.3404 5245.8055,7871.9932 5216.7013,7858.764 5186.7152,7842.0071 5157.611,7824.3682 5127.6249,7805.8473 5098.5208,7785.5626 5068.5347,7764.3959 5040.3124,7743.2293 5009.4444,7722.0626 4981.2222,7700.8959 4951.236,7680.6112 4922.1319,7661.2084 4892.1458,7642.6876 4863.0416,7626.8126 4833.0555,7612.7015 4803.9513,7600.3543 4773.9652,7590.6529 4744.8611,7585.3612 4714.8749,7581.8334 4686.6527,7582.7154 4655.7847,7587.1251 4627.5624,7594.1807 4597.5763,7603.8821 4568.4722,7616.2293 4538.4861,7631.2223 4509.3819,7647.0973 4479.3958,7664.7362 4450.2916,7684.139 4420.3055,7704.4237 4391.2013,7724.7084 4361.2152,7744.9932 4332.993,7766.1598 4303.0069,7785.5626 4273.9027,7805.8473 4243.9166,7823.4862 4214.8124,7841.1251 4184.8263,7856.1182 4155.7222,7869.3473 4125.7361,7880.8126 4096.6319,7889.6321 4066.6458,7895.8057 4037.5416,7899.3334 4007.5555,7901.0973 3979.3333,7901.9793 3949.3472,7900.2154 3920.243,7897.5696 3890.2569,7893.1598 3861.1527,7887.8682 3831.1666,7881.6946 3802.0624,7875.5209 3772.0763,7868.4654 3742.9722,7861.4098 3712.9861,7853.4723 3684.7638,7846.4168 3653.8958,7840.2432 3623.9097,7833.1876 3595.6874,7827.8959 3564.8194,7823.4862 3536.5972,7819.9584 3506.6111,7818.1946 3477.5069,7817.3126 3447.5208,7818.1946 3418.4166,7819.0765 3388.4305,7821.7223 3359.3263,7825.2501 3329.3402,7828.7779 3300.2361,7833.1876 3270.25,7838.4793 3242.0277,7843.7709 3211.1597,7849.9446 3182.9375,7856.1182 3152.9513,7862.2918 3123.8472,7868.4654 3093.8611,7874.639 3064.7569,7880.8126 3034.7708,7886.1043 3005.6666,7891.3959 2975.6805,7896.6876 2946.5763,7901.0973 2916.5902,7903.7432 2888.368,7907.2709 2858.3819,7909.0348 2829.2777,7910.7987 2799.2916,7911.6807 2770.1875,7912.5626 2740.2013,7912.5626 2711.0972,7912.5626 2681.1111,7912.5626 2652.0069,7911.6807 2622.0208,7910.7987 2592.9166,7909.0348 2562.9305,7907.2709 2534.7083,7905.5071 2504.7222,7903.7432 2475.618,7901.9793 2445.6319,7900.2154 2416.5277,7898.4515 2386.5416,7896.6876 2357.4375,7894.9237 2327.4513,7894.0418 2298.3472,7892.2779 2268.3611,7891.3959 2240.1388,7889.6321 2209.2708,7888.7501 2181.0486,7888.7501 2151.0625,7887.8682 2121.9583,7886.9862 2091.9722,7886.1043 2062.868,7886.1043 2032.8819,7885.2223 2003.7777,7885.2223 1973.7916,7885.2223 1944.6875,7885.2223 1914.7014,7884.3404 1886.4791,7884.3404 1855.6111,7884.3404 1827.3889,7884.3404 1797.4027,7884.3404 1768.2986,7884.3404 1738.3125,7883.4584 1709.2083,7883.4584 1679.2222,7883.4584 1650.118,7882.5765 1620.1319,7882.5765 1591.0277,7882.5765 1561.0416,7882.5765 1532.8194,7882.5765 1501.9514,7882.5765 1473.7291,7882.5765 1443.743,7882.5765 1414.6389,7882.5765 1384.6527,7882.5765 1355.5486,7882.5765 1325.5625,7882.5765 1296.4583,7883.4584 1266.4722,7883.4584 1237.368,7884.3404 1207.3819,7885.2223 1179.1597,7885.2223 1148.2916,7886.1043 1120.0694,7886.9862 1090.0833,7888.7501 1060.9791,7889.6321 1030.993,7890.514 1001.8889,7891.3959 971.90272,7892.2779 942.79862,7893.1598 912.81252,7893.1598 883.70832,7894.0418 853.72222,7894.0418 825.50002,7894.0418 795.51392,7894.0418 766.40972,7893.1598 736.42362,7892.2779 707.31942,7890.514 677.33332,7889.6321 648.22912,7886.9862 618.24302,7884.3404 589.13892,7881.6946 559.15272,7878.1668 530.93052,7873.7571 500.06252,7869.3473 471.84032,7864.0557 441.85412,7859.6459 412.75002,7853.4723 382.76392,7847.2987 353.65972,7841.1251 323.67362,7834.0696 294.56942,7827.014 264.58332,7819.0765 235.47912,7812.0209 205.49302,7804.0834 177.27082,7796.1459 146.40282,7788.2084 118.18052,7779.389 88.19442,7771.4515 59.09032,7762.6321 29.10412,7753.8126 0,7745.8751 0,8715.132 0,9000.0001 13583.709,9000.0001 13583.709,8715.132 13583.709,7845.5348 13554.604,7848.1807 13524.618,7851.7084 13495.514,7854.3543 13465.528,7857.0001 13436.424,7859.6459 13406.438,7862.2918 13377.334,7864.0557 13347.347,7866.7015 13318.243,7868.4654 13288.257,7871.1112 13260.035,7872.8751 13230.049,7873.7571 13200.945,7875.5209 13170.959,7876.4029 13141.854,7877.2848 13111.868,7878.1668 13082.764,7878.1668 13052.778,7878.1668 13023.674,7878.1668 12993.688,7877.2848 12965.466,7875.5209 12934.597,7874.639 12906.375,7872.8751 12876.389,7871.1112 12847.285,7868.4654 12817.299,7866.7015 12788.195,7864.0557 12758.209,7862.2918 12729.104,7859.6459 12699.118,7857.8821 12670.014,7855.2362 12640.028,7854.3543 12611.806,7852.5904 12580.938,7850.8265 12552.716,7850.8265 12522.729,7849.9446 12493.625,7850.8265 12463.639,7850.8265 12434.535,7852.5904 12404.549,7854.3543 12375.445,7857.8821 12345.459,7860.5279 12316.354,7864.0557 12286.368,7867.5834 12258.146,7870.2293 12227.278,7872.8751 12199.056,7874.639 12169.07,7875.5209 12139.966,7875.5209 12109.979,7873.7571 12080.875,7870.2293 12050.889,7864.0557 12021.785,7857.0001 11991.799,7846.4168 11962.695,7834.0696 11932.709,7818.1946 11904.486,7798.7918 11874.5,7775.8612 11845.396,7750.2848 11815.41,7719.4168 11786.306,7685.9029 11756.32,7647.9793 11727.216,7607.4098 11697.229,7564.1946 11668.125,7519.2154 11638.139,7472.4723 11609.035,7425.7293 11579.049,7378.9862 11550.827,7332.2432 11520.841,7287.264 11491.736,7243.1668 11461.75,7202.5973 11432.646,7163.7918 11402.66,7128.514 11373.556,7097.6459 11343.57,7072.0696 11314.466,7050.9029 11284.479,7035.0279 11256.257,7027.0904 11225.389,7024.4446 z"
       id="6"
       inkscape:connector-curvature="0" /></g><g
     inkscape:groupmode="layer"
     id="layer7"
     inkscape:label="5"
     style="display:inline"
     transform="translate(0,-7024.4447)"><path
       style="fill:none;stroke:#000000;stroke-width:28.22222137;stroke-miterlimit:4;stroke-dasharray:none;display:inline"
       d="M 3064.757,7840.2432 3034.7708,7841.1251 3005.6667,7842.889 2975.6806,7845.5348 2946.5764,7849.9446 2916.5903,7856.1182 2888.3681,7862.2918 2858.382,7870.2293 2829.2778,7879.9307 2799.2917,7889.6321 2770.1875,7900.2154 2740.2014,7911.6807 2711.0972,7923.1459 2681.1111,7934.6112 2652.007,7946.9584 2622.0208,7959.3057 2592.9167,7972.5348 2562.9306,7984.0001 2534.7083,7996.3473 2504.7222,8007.8126 2475.6181,8018.3959 2445.632,8028.9793 2416.5278,8038.6807 2386.5417,8047.5001 2357.4375,8055.4376 2327.4514,8061.6112 2298.3472,8066.9029 2268.3611,8071.3126 2240.1389,8075.7223 2209.2709,8078.3682 2181.0486,8080.132 2151.0625,8081.014 2121.9584,8081.8959 2091.9722,8081.8959 2062.8681,8081.8959 2032.882,8081.014 2003.7778,8079.2501 1973.7917,8078.3682 1944.6875,8076.6043 1914.7014,8074.8404 1886.4792,8073.0765 1855.6111,8071.3126 1827.3889,8070.4307 1797.4028,8068.6668 1768.2986,8067.7848 1738.3125,8066.9029 1709.2084,8066.9029 1679.2222,8066.9029 1650.1181,8066.9029 1620.132,8066.9029 1591.0278,8066.9029 1561.0417,8067.7848 1532.8195,8068.6668 1501.9514,8069.5487 1473.7292,8069.5487 1443.7431,8070.4307 1414.6389,8070.4307 1384.6528,8071.3126 1355.5486,8071.3126 1325.5625,8071.3126 1296.4584,8071.3126 1266.4722,8070.4307 1237.3681,8069.5487 1207.382,8068.6668 1179.1597,8066.9029 1148.2917,8064.257 1120.0695,8061.6112 1090.0834,8058.9654 1060.9792,8056.3195 1030.9931,8052.7918 1001.8889,8049.264 971.9028,8044.8543 942.7986,8041.3265 912.8125,8036.9168 883.7084,8033.389 853.7222,8028.9793 825.5,8025.4515 795.5139,8021.9237 766.4098,8017.514 736.4236,8014.8682 707.3195,8011.3404 677.3334,8008.6945 648.2292,8006.0487 618.2431,8004.2848 589.1389,8002.5209 559.1528,8000.757 530.9306,8000.757 500.0625,7999.8751 471.8403,8000.757 441.8542,8000.757 412.75,8001.639 382.7639,8003.4029 353.6598,8004.2848 323.6736,8006.9307 294.5695,8008.6945 264.5834,8011.3404 235.4792,8013.9862 205.4931,8016.632 177.2709,8020.1598 146.4028,8022.8057 118.1806,8026.3334 88.194496,8029.8612 59.0903,8033.389 29.1042,8036.0348 0,8039.5626 0,8715.132 0,9000.0001 13583.708,9000.0001 13583.708,8715.132 13583.708,7871.1112 13554.604,7882.5765 13524.618,7894.9237 13495.514,7908.1529 13465.528,7920.5001 13436.423,7933.7293 13406.437,7946.9584 13377.333,7960.1876 13347.347,7974.2987 13318.243,7989.2918 13288.257,8004.2848 13260.035,8020.1598 13230.048,8036.9168 13200.944,8053.6737 13170.958,8072.1945 13141.854,8091.5973 13111.868,8111.0001 13082.764,8132.1668 13052.778,8154.2154 13023.673,8178.0279 12993.687,8201.8404 12965.465,8228.2987 12934.597,8254.757 12906.375,8282.0973 12876.389,8311.2015 12847.285,8340.3057 12817.298,8369.4098 12788.194,8398.514 12758.208,8428.5001 12729.104,8457.6043 12699.118,8486.7084 12670.014,8514.9307 12640.028,8543.1529 12611.805,8569.6112 12580.937,8595.1876 12552.715,8619.0001 12522.729,8641.9307 12493.625,8663.0973 12463.639,8682.5001 12434.535,8699.257 12404.548,8715.132 10050.639,8715.132 10019.771,8703.6668 9991.5479,8691.3195 9961.5621,8678.0904 9932.4581,8663.0973 9902.4721,8647.2223 9873.3681,8631.3473 9843.3821,8614.5904 9814.2781,8597.8334 9784.2921,8581.0765 9755.1871,8564.3195 9725.2011,8548.4445 9696.9791,8532.5695 9666.1111,8518.4584 9637.8891,8505.2293 9607.9031,8493.764 9578.7981,8484.0626 9548.8121,8475.2432 9519.7081,8469.0695 9489.7221,8465.5418 9460.6181,8463.7779 9430.6321,8465.5418 9401.5281,8469.0695 9371.5421,8475.2432 9343.3191,8484.0626 9313.3331,8493.764 9284.2291,8505.2293 9254.2431,8518.4584 9225.1391,8532.5695 9195.1531,8548.4445 9166.0481,8564.3195 9136.0621,8581.0765 9106.9581,8597.8334 9076.9721,8614.5904 9048.7501,8631.3473 9017.8821,8647.2223 8989.6601,8663.0973 8959.6731,8678.0904 8930.5691,8691.3195 8900.5831,8703.6668 8871.4791,8715.132 6483.1736,8715.132 6454.0694,8697.4932 6424.0833,8678.9723 6395.8611,8656.9237 6364.993,8633.1112 6336.7708,8607.5348 6306.7847,8580.1945 6277.6805,8551.9723 6247.6944,8521.9862 6218.5903,8491.1182 6188.6042,8458.4862 6159.5,8425.8543 6129.5139,8393.2223 6100.4097,8359.7084 6070.4236,8326.1945 6042.2014,8292.6807 6012.2153,8260.0487 5983.1111,8227.4168 5953.125,8196.5487 5924.0208,8165.6807 5894.0347,8136.5765 5864.9305,8108.3543 5834.9444,8081.014 5805.8403,8056.3195 5775.8542,8031.6251 5747.6319,8009.5765 5716.7639,7988.4098 5688.5417,7968.1251 5658.5555,7950.4862 5629.4514,7932.8473 5599.4653,7917.8543 5570.3611,7903.7432 5540.375,7890.514 5511.2708,7879.9307 5481.2847,7869.3473 5452.1805,7861.4098 5422.1944,7855.2362 5393.9722,7849.0626 5363.1042,7845.5348 5334.8819,7842.889 5304.8958,7842.0071 5275.7917,7842.0071 5245.8055,7844.6529 5216.7014,7847.2987 5186.7153,7851.7084 5157.6111,7856.1182 5127.625,7862.2918 5098.5208,7868.4654 5068.5347,7875.5209 5040.3125,7882.5765 5009.4444,7890.514 4981.2222,7898.4515 4951.2361,7906.389 4922.1319,7913.4446 4892.1458,7920.5001 4863.0417,7927.5557 4833.0556,7933.7293 4803.9514,7939.0209 4773.9653,7943.4307 4744.8611,7946.9584 4714.875,7949.6043 4686.6528,7950.4862 4655.7847,7950.4862 4627.5625,7949.6043 4597.5764,7946.9584 4568.4722,7944.3126 4538.4861,7940.7848 4509.3819,7936.3751 4479.3958,7931.9654 4450.2917,7926.6737 4420.3056,7920.5001 4391.2014,7915.2084 4361.2153,7909.0348 4332.9931,7902.8612 4303.0069,7897.5696 4273.9028,7891.3959 4243.9167,7886.1043 4214.8125,7881.6946 4184.8264,7877.2848 4155.7222,7872.8751 4125.7361,7870.2293 4096.6319,7868.4654 4066.6458,7866.7015 4037.5417,7865.8196 4007.5556,7865.8196 3979.3333,7865.8196 3949.3472,7866.7015 3920.2431,7868.4654 3890.2569,7869.3473 3861.1528,7871.1112 3831.1667,7872.8751 3802.0625,7875.5209 3772.0764,7877.2848 3742.9722,7879.0487 3712.9861,7880.8126 3684.7639,7881.6946 3653.8958,7882.5765 3623.9097,7883.4584 3595.6875,7884.3404 3564.8195,7883.4584 3536.5972,7882.5765 3506.6111,7880.8126 3477.507,7878.1668 3447.5208,7875.5209 3418.4167,7871.9932 3388.4306,7868.4654 3359.3264,7864.9376 3329.3403,7861.4098 3300.2361,7857.8821 3270.25,7854.3543 3242.0278,7850.8265 3211.1597,7847.2987 3182.9375,7844.6529 3152.9514,7842.0071 3123.8472,7841.1251 3093.8611,7840.2432 3064.757,7840.2432 z"
       id="5"
       inkscape:connector-curvature="0" /></g><g
     inkscape:groupmode="layer"
     id="layer5"
     inkscape:label="4"
     style="display:inline"
     transform="translate(0,-7024.4447)"><path
       style="fill:none;stroke:#000000;stroke-width:28.22222137;stroke-miterlimit:4;stroke-dasharray:none;display:inline"
       d="M 9104.3124,7700.455 9073.4444,7703.9828 9045.2222,7709.2744 9015.2361,7718.0939 8986.1319,7729.5592 8956.1458,7745.4342 8927.0416,7764.8369 8897.0555,7788.6494 8867.9513,7816.8717 8837.9652,7849.5036 8808.8611,7885.6633 8778.8749,7926.2328 8750.6527,7969.448 8719.7847,8015.3091 8691.5624,8063.8161 8661.5763,8114.0869 8632.4722,8165.2397 8602.4861,8217.2744 8573.3819,8270.1911 8543.3958,8323.1078 8514.2916,8375.1425 8484.3055,8425.4133 8455.2013,8474.8022 8425.2152,8522.4272 8397.8749,8567.4064 8367.8888,8608.8578 8338.7847,8647.6633 8308.7986,8682.0591 8279.6944,8712.9272 589.13888,8712.9272 559.15277,8695.2883 530.93055,8675.0036 500.06249,8652.955 471.84027,8628.2605 441.85416,8600.9203 412.74999,8571.8161 382.76388,8540.948 353.65972,8508.3161 323.6736,8473.9203 294.56944,8437.7605 264.58333,8400.7189 235.47916,8361.9133 205.49305,8322.2258 177.27083,8281.6564 146.40277,8239.323 118.18055,8197.8716 88.194444,8154.6564 59.090277,8111.4411 29.104166,8068.2258 0,8024.1286 0,8712.9272 0,8997.7953 13583.708,8997.7953 13583.708,8712.9272 13583.708,8002.08 13554.604,8003.8439 13524.618,8004.7258 13495.514,8006.4897 13465.528,8007.3716 13436.424,8009.1355 13406.438,8010.0175 13377.333,8011.7814 13347.347,8013.5453 13318.243,8015.3091 13288.257,8017.955 13260.035,8019.7189 13230.049,8022.3647 13200.944,8025.0105 13170.958,8028.5383 13141.854,8032.0661 13111.868,8035.5939 13082.764,8039.1216 13052.778,8043.5314 13023.674,8048.823 12993.688,8053.2328 12965.465,8058.5244 12934.597,8064.698 12906.375,8070.8716 12876.389,8077.0453 12847.285,8083.2189 12817.299,8089.3925 12788.194,8095.5661 12758.208,8102.6216 12729.104,8107.9133 12699.118,8114.0869 12670.014,8119.3786 12640.028,8123.7883 12611.806,8128.198 12580.938,8132.6078 12552.715,8135.2536 12522.729,8137.8994 12493.625,8138.7814 12463.639,8139.6633 12434.535,8138.7814 12404.549,8137.8994 12375.444,8135.2536 12345.458,8131.7258 12316.354,8127.3161 12286.368,8121.1425 12258.146,8114.9689 12227.278,8107.9133 12199.056,8100.8578 12169.069,8092.9203 12139.965,8084.9828 12109.979,8076.1633 12080.875,8068.2258 12050.889,8059.4064 12021.785,8050.5869 11991.799,8041.7675 11962.694,8033.83 11932.708,8025.8925 11904.486,8017.955 11874.5,8010.8994 11845.396,8004.7258 11815.41,7999.4342 11786.306,7994.1425 11756.319,7990.6147 11727.215,7987.0869 11697.229,7984.4411 11668.125,7982.6772 11638.139,7980.9133 11609.035,7980.0314 11579.049,7980.0314 11550.826,7980.9133 11520.84,7980.9133 11491.736,7982.6772 11461.75,7984.4411 11432.646,7986.205 11402.66,7988.8508 11373.556,7991.4967 11343.569,7994.1425 11314.465,7996.7883 11284.479,8000.3161 11256.257,8003.8439 11225.389,8006.4897 11197.167,8010.0175 11167.181,8013.5453 11138.076,8017.073 11108.09,8020.6008 11078.986,8024.1286 11049,8027.6564 11019.014,8030.3022 10989.91,8032.948 10959.924,8036.4758 10930.819,8038.2397 10900.833,8040.8855 10871.729,8043.5314 10841.743,8045.2953 10813.521,8046.1772 10782.653,8047.9411 10754.431,8048.823 10724.444,8048.823 10695.34,8048.823 10665.354,8048.823 10636.25,8047.9411 10606.264,8046.1772 10577.16,8044.4133 10547.174,8041.7675 10518.069,8039.1216 10488.083,8035.5939 10459.861,8032.0661 10429.875,8028.5383 10400.771,8024.1286 10370.785,8019.7189 10341.681,8014.4272 10311.694,8010.0175 10282.59,8004.7258 10252.604,7998.5522 10223.5,7993.2605 10193.514,7987.0869 10164.41,7980.9133 10134.424,7974.7397 10106.201,7968.5661 10076.215,7962.3925 10047.111,7956.2189 10017.125,7949.1633 9988.0208,7942.9897 9958.0347,7936.8161 9928.9305,7929.7605 9898.9444,7923.5869 9869.8402,7916.5314 9839.8541,7909.4758 9811.6319,7902.4203 9780.7638,7895.3647 9752.5416,7887.4272 9722.5555,7879.4897 9693.4513,7871.5522 9663.4652,7863.6147 9634.3611,7854.7953 9604.3749,7845.9758 9575.2708,7836.2744 9545.2847,7826.573 9516.1805,7816.8717 9486.1944,7806.2883 9457.9722,7795.705 9427.1041,7784.2397 9398.8819,7772.7744 9368.8958,7761.3092 9339.7916,7749.8439 9309.8055,7739.2605 9280.7013,7729.5592 9250.7152,7720.7397 9221.6111,7712.8022 9191.6249,7706.6286 9162.5208,7702.2189 9132.5347,7700.455 9104.3124,7700.455 z"
       id="4"
       inkscape:connector-curvature="0" /></g><g
     inkscape:groupmode="layer"
     id="layer4"
     inkscape:label="3"
     style="display:inline"
     transform="translate(0,-7024.4447)"><path
       style="fill:none;stroke:#000000;stroke-width:28.22222137;stroke-miterlimit:4;stroke-dasharray:none;display:inline"
       d="M 8398.7569,7855.2362 8368.7708,7857.882 8339.6667,7861.4098 8309.6805,7866.7015 8280.5764,7873.757 8250.5903,7883.4584 8222.368,7894.0418 8191.5,7906.389 8163.2777,7920.5001 8133.2916,7935.4932 8104.1875,7952.2501 8074.2013,7969.889 8045.0972,7987.5279 8015.1111,8006.9307 7986.0069,8026.3334 7956.0208,8045.7362 7926.9166,8065.139 7896.9305,8085.4237 7868.7083,8105.7084 7837.8402,8125.1112 7809.618,8143.632 7779.6319,8162.1529 7750.5277,8180.6737 7720.5416,8197.4307 7691.4375,8213.3057 7661.4513,8227.4168 7632.3472,8241.5279 7602.3611,8252.9931 7573.2569,8264.4584 7543.2708,8274.1598 7515.0486,8282.0973 7485.0625,8289.1529 7455.9583,8294.4445 7425.9722,8297.9723 7396.868,8300.6181 7366.8819,8301.5001 7336.8958,8301.5001 7307.7916,8299.7362 7277.8055,8296.2084 7248.7013,8291.7987 7218.7152,8284.7431 7189.611,8276.8056 7159.6249,8267.1043 7131.4027,8255.639 7100.5346,8242.4098 7072.3124,8227.4168 7042.3263,8211.5418 7013.2221,8193.9029 6983.236,8175.382 6954.1318,8156.8612 6924.1457,8136.5765 6895.0416,8117.1737 6865.0555,8096.889 6835.9513,8077.4862 6805.9652,8058.0834 6777.743,8039.5626 6746.8749,8021.9237 6718.6527,8006.0487 6688.6666,7990.1737 6659.5624,7976.9445 6629.5763,7965.4793 6600.4721,7956.6598 6570.486,7949.6043 6541.3818,7945.1945 6511.3957,7944.3126 6482.2916,7946.0765 6452.3055,7950.4862 6424.0832,7957.5418 6393.2152,7966.3612 6364.993,7977.8265 6335.0068,7991.9376 6305.9027,8006.9307 6275.9166,8022.8057 6246.8124,8040.4445 6216.8263,8058.9654 6187.7221,8077.4862 6157.736,8096.889 6128.6319,8116.2918 6098.6457,8134.8126 6070.4235,8153.3334 6040.4374,8170.9723 6011.3332,8188.6112 5981.3471,8204.4862 5952.243,8218.5973 5922.2569,8230.9445 5893.1527,8241.5279 5863.1666,8251.2293 5834.0624,8258.2848 5804.0763,8263.5765 5774.9721,8267.1043 5744.986,8269.7501 5716.7638,8270.632 5686.7777,8270.632 5657.6735,8268.8681 5627.6874,8266.2223 5598.5832,8261.8126 5568.5971,8257.4029 5539.493,8251.2293 5509.5069,8245.0557 5480.4027,8238.0001 5450.4166,8230.0626 5422.1944,8222.1251 5391.3263,8213.3057 5363.1041,8203.6043 5333.118,8194.7848 5304.0138,8185.0834 5274.0277,8175.382 5244.9235,8165.6807 5214.9374,8155.9793 5185.8332,8147.1598 5155.8471,8138.3404 5126.743,8129.5209 5096.7569,8120.7015 5068.5346,8112.764 5037.6666,8105.7084 5009.4444,8099.5348 4979.4582,8093.3612 4950.3541,8088.0695 4920.368,8084.5418 4891.2638,8081.014 4861.2777,8079.2501 4832.1735,8078.3682 4802.1874,8079.2501 4773.0832,8081.014 4743.0971,8084.5418 4714.8749,8088.9515 4684.0069,8095.1251 4655.7846,8102.1807 4625.7985,8111.0001 4596.6944,8119.8195 4566.7083,8130.4029 4537.6041,8140.1043 4507.618,8151.5695 4478.5138,8162.1529 4448.5277,8173.6182 4419.4235,8185.0834 4389.4374,8195.6668 4361.2152,8206.2501 4330.3471,8216.8334 4302.1249,8225.6529 4272.1388,8234.4723 4243.0346,8241.5279 4213.0485,8247.7015 4183.9444,8252.9931 4153.9583,8256.5209 4124.8541,8258.2848 4094.8681,8258.2848 4065.7639,8257.4029 4035.7778,8254.757 4007.5556,8251.2293 3977.5695,8246.8195 3948.4653,8241.5279 3918.4792,8235.3543 3889.3749,8229.1807 3859.3889,8222.1251 3830.2846,8215.0695 3800.2985,8207.132 3771.1945,8200.0765 3741.2083,8193.0209 3712.986,8185.9654 3682.1181,8179.7918 3652.132,8174.5001 3623.9096,8169.2084 3593.0417,8164.7987 3564.8195,8161.2709 3534.8333,8159.507 3505.7292,8158.6251 3475.7431,8158.6251 3446.6389,8158.6251 3416.6528,8160.389 3387.5485,8163.0348 3357.5624,8166.5626 3328.4583,8170.0904 3298.4722,8173.6182 3270.2499,8178.0279 3239.382,8183.3195 3211.1597,8187.7293 3181.1735,8193.0209 3152.0695,8198.3126 3122.0833,8203.6043 3092.9791,8208.8959 3062.9931,8214.1876 3033.8888,8218.5973 3003.9027,8223.889 2974.7986,8227.4168 2944.8125,8230.9445 2916.5902,8234.4723 2885.7222,8237.1182 2857.5,8239.764 2827.5138,8241.5279 2798.4097,8243.2918 2768.4236,8245.0557 2739.3195,8245.9376 2709.3333,8247.7015 2680.2291,8248.5834 2650.2431,8249.4654 2621.1388,8250.3473 2591.1527,8250.3473 2562.9306,8252.1112 2532.9445,8252.1112 2503.8402,8253.8751 2473.8541,8254.757 2444.75,8255.639 2414.7638,8257.4029 2385.6597,8259.1668 2355.6736,8261.8126 2326.5695,8263.5765 2296.5833,8266.2223 2268.3611,8268.8681 2237.4931,8271.514 2209.2708,8274.1598 2179.2847,8275.9237 2150.1806,8278.5695 2120.1945,8280.3334 2091.0902,8281.2154 2061.1041,8282.9793 2032,8282.9793 2002.0138,8282.9793 1972.9097,8282.9793 1942.9236,8281.2154 1914.7013,8279.4515 1883.8333,8276.8056 1855.6111,8272.3959 1825.625,8267.9862 1796.5208,8261.8126 1766.5347,8254.757 1737.4306,8246.8195 1707.4445,8238.882 1678.3402,8229.1807 1648.3541,8219.4793 1619.25,8209.7779 1589.2638,8200.9584 1561.0416,8191.257 1530.1736,8182.4376 1501.9513,8174.5001 1471.9652,8166.5626 1442.8611,8160.389 1412.875,8155.9793 1383.7708,8152.4515 1353.7847,8149.8057 1324.6806,8149.8057 1294.6945,8152.4515 1265.5902,8156.8612 1235.6041,8163.0348 1207.382,8172.7362 1176.5138,8184.2015 1148.2916,8199.1945 1118.3056,8216.8334 1089.2013,8235.3543 1059.2153,8256.5209 1030.1112,8279.4515 1000.125,8303.264 971.02085,8327.9584 941.03475,8354.4168 911.93055,8380.8751 881.94445,8408.2154 853.72225,8434.6737 823.73615,8462.014 794.63195,8489.3543 764.64585,8514.9306 735.54165,8539.6251 705.55555,8564.3195 676.45135,8587.2501 646.46525,8608.4168 617.36115,8627.8195 587.37495,8644.5765 559.15275,8659.5695 528.28475,8673.6806 500.06255,8685.1459 470.07635,8694.8473 440.97225,8703.6668 410.98615,8710.7223 385.40975,8715.132 0,8715.132 0,9000.0001 13584.59,9000.0001 13584.59,8715.132 13584.59,8007.8126 13555.486,8012.2223 13525.5,8016.632 13496.395,8021.0418 13466.409,8025.4515 13437.305,8029.8612 13407.319,8033.389 13378.215,8037.7987 13348.229,8041.3265 13319.125,8045.7362 13289.138,8048.382 13260.916,8051.9098 13230.93,8055.4376 13201.826,8058.9654 13171.84,8061.6112 13142.736,8064.257 13112.75,8066.9029 13083.645,8068.6668 13053.659,8070.4307 13024.555,8072.1945 12994.569,8073.9584 12966.347,8074.8404 12935.479,8075.7223 12907.256,8076.6043 12877.27,8076.6043 12848.166,8076.6043 12818.18,8075.7223 12789.076,8075.7223 12759.09,8074.8404 12729.986,8073.9584 12700,8073.0765 12670.895,8071.3126 12640.909,8070.4307 12612.687,8068.6668 12581.819,8067.7848 12553.597,8066.0209 12523.611,8064.257 12494.507,8061.6112 12464.52,8060.7293 12435.416,8058.9654 12405.43,8056.3195 12376.326,8054.5557 12346.34,8052.7918 12317.236,8051.0279 12287.25,8050.1459 12259.027,8048.382 12228.159,8046.6182 12199.937,8045.7362 12169.951,8043.9723 12140.847,8043.0904 12110.861,8042.2084 12081.757,8042.2084 12051.77,8042.2084 12022.666,8042.2084 11992.68,8042.2084 11963.576,8043.0904 11933.59,8043.9723 11905.368,8045.7362 11874.5,8047.5001 11846.277,8050.1459 11816.291,8052.7918 11787.187,8056.3195 11757.201,8059.8473 11728.097,8064.257 11698.111,8068.6668 11669.007,8073.0765 11639.02,8078.3682 11609.916,8083.6598 11579.93,8088.9515 11551.708,8094.2432 11521.722,8100.4168 11492.618,8105.7084 11462.632,8111.0001 11433.527,8117.1737 11403.541,8122.4654 11374.437,8127.757 11344.451,8133.0487 11315.347,8137.4584 11285.361,8142.7501 11257.138,8147.1598 11226.27,8150.6876 11198.048,8154.2154 11168.062,8157.7432 11138.958,8160.389 11108.972,8162.1529 11079.868,8163.9168 11049.882,8164.7987 11019.895,8164.7987 10990.791,8164.7987 10960.805,8163.9168 10931.701,8162.1529 10901.715,8159.507 10872.611,8155.9793 10842.625,8151.5695 10814.402,8146.2779 10783.534,8140.1043 10755.312,8133.0487 10725.326,8125.1112 10696.222,8115.4098 10666.236,8104.8265 10637.132,8094.2432 10607.145,8081.014 10578.041,8067.7848 10548.055,8052.7918 10518.951,8037.7987 10488.965,8022.8057 10460.743,8006.9307 10429.875,7991.0557 10401.652,7976.0626 10371.666,7960.1876 10342.562,7945.1945 10312.576,7931.0834 10283.472,7917.8543 10253.486,7906.389 10224.382,7894.9237 10194.395,7885.2223 10165.291,7877.2848 10135.305,7871.9932 10107.083,7867.5834 10077.097,7865.8195 10047.993,7866.7015 10018.007,7869.3473 9988.9024,7874.639 9958.9164,7881.6945 9929.8124,7891.3959 9899.8264,7901.9793 9870.7224,7914.3265 9840.7364,7928.4376 9812.5134,7942.5487 9781.6454,7957.5418 9753.4234,7973.4168 9723.4374,7989.2918 9694.3334,8005.1668 9664.3474,8021.0418 9635.2434,8036.0348 9605.2574,8050.1459 9576.1524,8064.257 9546.1664,8076.6043 9517.0624,8088.0695 9487.0764,8096.889 9458.8544,8104.8265 9427.9864,8111.0001 9399.7634,8114.5279 9369.7774,8116.2918 9340.6734,8116.2918 9310.6874,8115.4098 9281.5834,8112.764 9251.5974,8108.3543 9222.4934,8102.1807 9192.5074,8096.007 9163.4024,8088.0695 9133.4164,8079.2501 9105.1944,8069.5487 9074.3264,8058.9654 9046.1044,8047.5001 9016.118,8036.0348 8987.0139,8024.5695 8957.0278,8012.2223 8927.9236,7999.8751 8897.9375,7987.5279 8868.8333,7975.1807 8838.8472,7962.8334 8809.743,7950.4862 8779.7569,7938.139 8751.5347,7927.5557 8720.6667,7916.0904 8692.4444,7906.389 8662.4583,7896.6876 8633.3542,7887.8682 8603.368,7879.9307 8574.2639,7872.8751 8544.2778,7866.7015 8515.1736,7862.2918 8485.1875,7858.764 8456.0833,7856.1182 8426.0972,7855.2362 8398.7569,7855.2362 z"
       id="3"
       inkscape:connector-curvature="0" /></g><g
     inkscape:groupmode="layer"
     id="layer3"
     inkscape:label="2"
     style="display:inline"
     transform="translate(0,-7024.4447)"><path
       style="fill:none;stroke:#000000;stroke-width:28.22222137;stroke-miterlimit:4;stroke-dasharray:none;display:inline"
       d="M 7072.3125,7832.3057 7044.0903,7833.1876 7014.1042,7835.8335 6985,7840.2432 6955.0139,7847.2987 6925.9097,7855.2362 6895.9236,7864.0557 6866.8194,7875.521 6836.8333,7886.9862 6807.7292,7900.2154 6777.743,7914.3265 6749.5208,7928.4376 6718.6528,7944.3126 6690.4305,7959.3057 6660.4444,7975.1807 6631.3403,7991.0557 6601.3542,8007.8126 6572.25,8023.6876 6542.2639,8039.5626 6513.1597,8054.5557 6483.1736,8069.5487 6454.0694,8083.6599 6424.0833,8096.889 6395.8611,8109.2362 6364.993,8120.7015 6336.7708,8132.1668 6306.7847,8142.7501 6277.6805,8151.5696 6247.6944,8160.389 6218.5903,8169.2085 6188.6042,8176.264 6159.5,8183.3196 6129.5139,8188.6112 6100.4097,8193.9029 6070.4236,8198.3126 6042.2014,8201.8404 6012.2153,8204.4862 5983.1111,8207.1321 5953.125,8208.014 5924.0208,8208.896 5894.0347,8208.896 5864.9306,8208.014 5834.9444,8206.2501 5805.8403,8203.6043 5775.8542,8200.9585 5747.6319,8197.4307 5716.7639,8194.7849 5688.5417,8191.2571 5658.5556,8186.8474 5629.4514,8183.3196 5599.4653,8178.9099 5570.3611,8175.3821 5540.375,8171.8543 5511.2708,8169.2085 5481.2847,8165.6807 5452.1806,8163.9168 5422.1944,8162.1529 5393.9722,8161.271 5363.1042,8160.389 5334.8819,8161.271 5304.8958,8163.0349 5275.7917,8165.6807 5245.8056,8169.2085 5216.7014,8172.7362 5186.7153,8178.0279 5157.6111,8183.3196 5127.625,8189.4932 5098.5208,8195.6668 5068.5347,8201.8404 5040.3125,8208.896 5009.4444,8215.0696 4981.2222,8221.2432 4951.2361,8227.4168 4922.1319,8232.7085 4892.1458,8238.8821 4863.0417,8243.2918 4833.0556,8246.8196 4803.9514,8249.4654 4773.9653,8252.1112 4744.8611,8252.9932 4714.875,8252.1112 4686.6528,8250.3474 4655.7847,8247.7015 4627.5625,8244.1737 4597.5764,8238.8821 4568.4722,8232.7085 4538.4861,8226.5349 4509.382,8218.5974 4479.3958,8210.6599 4450.2917,8201.8404 4420.3056,8192.139 4391.2014,8182.4376 4361.2153,8172.7362 4332.9931,8163.0349 4303.007,8152.4515 4273.9028,8141.8682 4243.9167,8132.1668 4214.8125,8122.4654 4184.8264,8112.764 4155.7222,8103.0626 4125.7361,8094.2432 4096.632,8086.3057 4066.6458,8078.3682 4037.5417,8070.4307 4007.5556,8064.2571 3979.3333,8058.9654 3949.3472,8053.6737 3920.2431,8048.3821 3890.257,8044.8543 3861.1528,8042.2085 3831.1667,8039.5626 3802.0625,8038.6807 3772.0764,8037.7987 3742.9722,8037.7987 3712.9861,8038.6807 3684.7639,8040.4446 3653.8958,8043.0904 3623.9097,8046.6182 3595.6875,8051.0279 3564.8195,8057.2015 3536.5972,8063.3751 3506.6111,8070.4307 3477.507,8079.2501 3447.5208,8088.0696 3418.4167,8098.6529 3388.4306,8108.3543 3359.3264,8118.9376 3329.3403,8130.4029 3300.2361,8141.8682 3270.25,8153.3335 3242.0278,8164.7987 3211.1597,8176.264 3182.9375,8186.8474 3152.9514,8198.3126 3123.8472,8208.014 3093.8611,8217.7154 3064.757,8227.4168 3034.7709,8235.3543 3005.6667,8242.4099 2975.6806,8249.4654 2946.5764,8253.8751 2916.5903,8258.2849 2888.3681,8260.9307 2858.382,8262.6946 2829.2778,8263.5765 2799.2917,8263.5765 2770.1875,8262.6946 2740.2014,8260.9307 2711.0972,8258.2849 2681.1111,8255.639 2652.007,8252.1112 2622.0209,8248.5835 2592.9167,8244.1737 2562.9306,8239.764 2534.7084,8235.3543 2504.7222,8230.9446 2475.6181,8226.5349 2445.632,8222.1251 2416.5278,8217.7154 2386.5417,8213.3057 2357.4375,8209.7779 2327.4514,8206.2501 2298.3472,8203.6043 2268.3611,8200.0765 2240.1389,8198.3126 2209.2709,8196.5487 2181.0486,8194.7849 2151.0625,8193.021 2121.9584,8192.139 2091.9722,8190.3751 2062.8681,8190.3751 2032.882,8188.6112 2003.7778,8188.6112 1973.7917,8187.7293 1944.6875,8187.7293 1914.7014,8186.8474 1886.4792,8186.8474 1855.6111,8185.9654 1827.3889,8185.9654 1797.4028,8185.0835 1768.2986,8184.2015 1738.3125,8184.2015 1709.2084,8183.3196 1679.2223,8182.4376 1650.1181,8180.6737 1620.132,8179.7918 1591.0278,8178.9099 1561.0417,8178.0279 1532.8195,8176.264 1501.9514,8175.3821 1473.7292,8174.5001 1443.7431,8173.6182 1414.6389,8172.7362 1384.6528,8171.8543 1355.5486,8170.9724 1325.5625,8170.9724 1296.4584,8170.0904 1266.4723,8170.0904 1237.3681,8170.9724 1207.382,8170.9724 1179.1598,8171.8543 1148.2917,8172.7362 1120.0695,8173.6182 1090.0834,8174.5001 1060.9792,8176.264 1030.9931,8178.0279 1001.8889,8179.7918 971.9028,8181.5557 942.7986,8184.2015 912.8125,8185.9654 883.7084,8188.6112 853.7223,8191.2571 825.5,8193.021 795.5139,8195.6668 766.4098,8197.4307 736.4236,8200.0765 707.3195,8201.8404 677.3334,8204.4862 648.2292,8206.2501 618.2431,8208.014 589.1389,8209.7779 559.1528,8211.5418 530.9306,8212.4237 500.0625,8214.1876 471.8403,8215.0696 441.8542,8215.9515 412.75,8216.8335 382.7639,8216.8335 353.6598,8217.7154 323.6736,8217.7154 294.5695,8218.5974 264.5834,8218.5974 235.4792,8218.5974 205.4931,8218.5974 177.2709,8218.5974 146.4028,8218.5974 118.1806,8218.5974 88.1945,8218.5974 59.0903,8217.7154 29.1042,8217.7154 0,8217.7154 0,8714.2501 0,9000.0001 13583.708,9000.0001 13583.708,8714.2501 11198.049,8714.2501 11168.944,8711.6043 11138.958,8708.9585 11110.736,8706.3126 11079.868,8704.5487 11051.646,8701.9029 11021.66,8700.139 10990.792,8698.3751 10962.569,8696.6112 10932.583,8695.7293 10903.479,8694.8473 10873.493,8694.8473 10844.389,8694.8473 10814.403,8694.8473 10785.299,8695.7293 10755.312,8697.4932 10726.208,8699.2571 10696.222,8701.9029 10668,8705.4307 10637.132,8708.9585 10608.91,8714.2501 10019.771,8714.2501 9989.785,8693.9654 9960.681,8671.9168 9930.694,8647.2223 9901.59,8620.764 9871.604,8591.6598 9842.5,8560.7918 9812.514,8529.0418 9784.292,8495.5279 9753.424,8462.014 9725.201,8427.6182 9695.215,8393.2223 9666.111,8358.8265 9636.125,8324.4307 9607.021,8290.9168 9577.035,8258.2849 9547.931,8226.5349 9517.944,8196.5487 9488.84,8168.3265 9458.854,8142.7501 9430.632,8118.9376 9399.764,8096.889 9371.542,8078.3682 9341.556,8061.6112 9312.451,8047.5001 9282.465,8036.0349 9253.361,8026.3335 9223.375,8018.396 9194.271,8012.2224 9164.285,8007.8126 9135.181,8005.1668 9105.194,8004.2849 9076.972,8004.2849 9046.104,8006.0487 9017.882,8009.5765 8987.896,8013.1043 8958.792,8018.396 8928.806,8024.5696 8899.701,8031.6251 8869.715,8038.6807 8840.611,8047.5001 8810.625,8055.4376 8781.521,8065.139 8751.5347,8073.9585 8723.3125,8083.6599 8692.4444,8094.2432 8664.2222,8103.9446 8634.2361,8113.646 8605.1319,8124.2293 8575.1458,8133.9307 8546.0416,8143.6321 8516.0555,8153.3335 8486.9514,8162.1529 8456.9653,8170.9724 8427.8611,8178.9099 8397.875,8185.9654 8370.5347,8193.021 8340.5486,8199.1946 8311.4444,8204.4862 8281.4583,8208.896 8252.3541,8212.4237 8222.368,8215.0696 8194.1458,8216.8335 8163.2778,8216.8335 8135.0555,8216.8335 8105.0694,8215.0696 8075.9653,8212.4237 8045.9791,8208.896 8016.875,8204.4862 7986.8889,8199.1946 7957.7847,8193.021 7927.7986,8185.9654 7898.6944,8177.146 7868.7083,8168.3265 7840.4861,8158.6251 7809.618,8148.0418 7781.3958,8136.5765 7751.4097,8125.1112 7722.3055,8111.8821 7692.3194,8097.771 7663.2153,8083.6599 7633.2291,8067.7849 7604.125,8051.9099 7574.1389,8036.0349 7545.0347,8019.2779 7515.0486,8002.521 7486.8264,7985.764 7456.8403,7969.0071 7427.7361,7953.1321 7397.75,7937.2571 7368.6458,7921.3821 7338.6597,7907.271 7308.6736,7893.1599 7279.5694,7880.8126 7249.5833,7868.4654 7220.4792,7858.764 7190.493,7849.9446 7161.3889,7842.889 7131.4028,7837.5974 7103.1805,7834.0696 7072.3125,7832.3057 z"
       id="2"
       inkscape:connector-curvature="0" /></g><g
     inkscape:groupmode="layer"
     id="layer1"
     inkscape:label="1"
     style="display:inline"
     transform="translate(0,-7024.4447)"><path
       style="fill:none;stroke:#000000;stroke-width:28.22222137;stroke-miterlimit:4;stroke-dasharray:none;display:inline"
       d="M 7545.9166,7905.5071 7515.9305,7908.1529 7486.8263,7914.3265 7456.8402,7922.264 7427.736,7932.8474 7397.7499,7944.3126 7368.6457,7958.4237 7338.6596,7973.4168 7308.6735,7989.2918 7279.5693,8005.1668 7249.5832,8021.9237 7220.4791,8038.6807 7190.493,8055.4376 7162.2707,8070.4307 7131.4027,8085.4237 7103.1805,8098.6529 7073.1943,8111.0001 7044.0902,8120.7015 7014.1041,8129.521 6984.9999,8135.6946 6955.0138,8140.9862 6925.9096,8144.514 6895.9235,8147.1599 6866.8193,8148.0418 6836.8332,8148.0418 6808.611,8147.1599 6777.743,8145.396 6749.5207,8142.7501 6719.5346,8140.1043 6690.4305,8135.6946 6660.4444,8132.1668 6631.3402,8127.7571 6601.3541,8122.4654 6572.2499,8118.0557 6542.2638,8113.646 6513.1596,8109.2362 6483.1735,8104.8265 6454.9513,8100.4168 6424.0832,8096.889 6395.861,8094.2432 6365.8749,8091.5974 6336.7707,8088.9515 6306.7846,8087.1876 6277.6805,8085.4237 6247.6944,8083.6599 6218.5902,8082.7779 6188.6041,8082.7779 6159.4999,8082.7779 6129.5138,8082.7779 6101.2916,8083.6599 6071.3055,8085.4237 6042.2013,8087.1876 6012.2152,8088.9515 5983.111,8091.5974 5953.1249,8094.2432 5924.0207,8096.889 5894.0346,8101.2987 5864.9305,8104.8265 5834.9444,8109.2362 5806.7221,8114.5279 5775.8541,8118.9376 5747.6319,8124.2293 5717.6457,8129.521 5688.5416,8134.8126 5658.5555,8140.1043 5629.4513,8145.396 5599.4652,8151.5696 5570.361,8155.9793 5540.3749,8161.271 5511.2707,8165.6807 5481.2846,8170.0904 5453.0624,8173.6182 5422.1944,8177.146 5393.9721,8180.6737 5363.986,8182.4376 5334.8819,8184.2015 5304.8957,8185.0835 5275.7916,8185.9654 5245.8055,8185.0835 5216.7013,8184.2015 5186.7152,8183.3196 5157.611,8180.6737 5127.6249,8178.9098 5099.4027,8175.3821 5068.5346,8172.7362 5040.3124,8169.2085 5010.3263,8165.6807 4981.2221,8161.271 4951.236,8157.7432 4922.1319,8153.3335 4892.1458,8149.8057 4863.0416,8145.396 4833.0555,8141.8682 4803.9513,8138.3404 4773.9652,8134.8126 4745.743,8132.1668 4714.8749,8129.521 4686.6527,8126.8751 4656.6666,8125.1112 4627.5624,8123.3474 4597.5763,8122.4654 4568.4721,8121.5835 4538.486,8121.5835 4509.3819,8121.5835 4479.3958,8121.5835 4450.2916,8121.5835 4420.3055,8121.5835 4392.0833,8122.4654 4362.0971,8123.3474 4332.993,8124.2293 4303.0069,8125.9932 4273.9027,8126.8751 4243.9166,8127.7571 4214.8124,8129.521 4184.8263,8130.4029 4155.7221,8132.1668 4125.736,8133.9307 4096.6319,8134.8126 4066.6458,8136.5765 4038.4235,8137.4585 4008.4374,8139.2224 3979.3333,8140.1043 3949.3471,8140.9862 3920.243,8142.7501 3890.2569,8143.6321 3861.1527,8144.514 3831.1666,8145.396 3802.0624,8147.1599 3772.0763,8148.0418 3743.8541,8148.9237 3712.986,8149.8057 3684.7638,8151.5696 3654.7777,8152.4515 3623.9097,8153.3335 3595.6874,8154.2154 3565.7013,8155.9793 3536.5972,8156.8612 3506.611,8157.7432 3477.5069,8158.6251 3447.5208,8159.5071 3418.4166,8160.389 3388.4305,8162.1529 3359.3263,8163.0349 3329.3402,8163.0349 3301.118,8164.7987 3270.2499,8164.7987 3242.0277,8165.6807 3212.0416,8165.6807 3182.9374,8166.5626 3152.9513,8166.5626 3123.8472,8166.5626 3093.861,8166.5626 3064.7569,8166.5626 3034.7708,8166.5626 3005.6666,8165.6807 2975.6805,8164.7987 2947.4583,8163.9168 2917.4722,8162.1529 2888.368,8161.271 2858.3819,8159.5071 2829.2777,8157.7432 2799.2916,8155.9793 2770.1874,8153.3335 2740.2013,8151.5696 2711.0972,8148.9237 2681.111,8145.396 2652.0069,8142.7501 2622.0208,8140.1043 2593.7985,8136.5765 2563.8124,8133.9307 2534.7083,8130.4029 2504.7222,8126.8751 2475.618,8122.4654 2445.6319,8118.9376 2416.5277,8114.5279 2386.5416,8111.0001 2357.4374,8106.5904 2327.4513,8103.0626 2299.2291,8098.6529 2268.3611,8094.2432 2240.1388,8089.8335 2210.1527,8086.3057 2181.0486,8081.896 2151.0624,8078.3682 2121.9583,8074.8404 2091.9722,8071.3126 2062.868,8068.6668 2032.8819,8066.021 2003.7777,8064.2571 1973.7916,8062.4932 1945.5694,8061.6112 1914.7013,8061.6112 1886.4791,8061.6112 1856.493,8062.4932 1827.3888,8065.139 1797.4027,8066.9029 1768.2986,8070.4307 1738.3124,8074.8404 1709.2083,8080.1321 1679.2222,8085.4237 1650.118,8092.4793 1620.1319,8099.5349 1591.9097,8106.5904 1561.0416,8114.5279 1532.8194,8123.3474 1502.8333,8131.2849 1473.7291,8140.9862 1443.743,8149.8057 1414.6388,8158.6251 1384.6527,8167.4446 1355.5486,8177.146 1325.5624,8185.9654 1296.4583,8194.7848 1266.4722,8202.7223 1238.2499,8210.6598 1207.3819,8218.5973 1179.1597,8225.6529 1149.1736,8232.7085 1120.0694,8238.0001 1090.0833,8244.1737 1060.9791,8248.5835 1030.993,8252.9932 1001.8888,8256.521 971.90274,8260.0487 942.79864,8262.6946 912.81254,8265.3404 884.59024,8267.1043 854.60414,8268.8682 825.50004,8269.7501 795.51384,8270.6321 766.40974,8270.6321 736.42364,8270.6321 707.31944,8270.6321 677.33334,8269.7501 648.22914,8267.9862 618.24304,8267.1043 590.02084,8265.3404 559.15274,8262.6946 530.93054,8260.9307 500.94444,8258.2848 471.84027,8254.7571 441.85416,8252.1112 412.74999,8248.5835 382.76388,8245.0557 353.65972,8241.5279 323.67361,8237.1182 294.56944,8232.7085 264.58333,8228.2987 236.36111,8223.889 205.49305,8219.4793 177.27083,8215.0696 147.28472,8210.6598 118.18055,8205.3682 88.19444,8200.9585 59.09028,8195.6668 29.10416,8191.2571 0,8185.9654 0,8715.1321 0,9000.0001 13584.59,9000.0001 13584.59,8715.1321 8495.7707,8715.1321 8486.9513,8713.3682 8456.9652,8704.5487 8428.7429,8693.9654 8398.7568,8681.6182 8370.5346,8667.5071 8340.5485,8649.8682 8311.4443,8630.4654 8281.4582,8607.5348 8253.236,8581.9585 8222.3679,8553.7362 8194.1457,8522.8682 8164.1596,8489.3543 8135.0554,8454.0765 8105.0693,8417.0348 8075.9652,8379.1112 8045.9791,8340.3057 8016.8749,8301.5001 7986.8888,8261.8126 7957.7846,8223.0071 7927.7985,8184.2015 7899.5763,8147.1599 7868.7082,8111.0001 7840.486,8076.6043 7810.4999,8043.9724 7781.3957,8014.8682 7751.4096,7988.4099 7722.3055,7964.5974 7692.3193,7945.1946 7663.2152,7929.3196 7633.2291,7917.8543 7604.1249,7909.9168 7574.1388,7906.389 7545.9166,7905.5071 z"
       id="1"
       inkscape:connector-curvature="0" /></g></svg>